<svg xmlns="http://www.w3.org/2000/svg" version="1.1" xmlns:xlink="http://www.w3.org/1999/xlink" xmlns:svgjs="http://svgjs.com/svgjs" width="1920" height="4000" preserveAspectRatio="none" viewBox="0 0 1920 4000">
    <g mask="url(&quot;#SvgjsMask3040&quot;)" fill="none">
        <path d="M44.8 -84.93L121.01 -40.93L121.01 47.07L44.8 91.07L-31.41 47.07L-31.41 -40.93zM44.8 707.07L121.01 751.07L121.01 839.07L44.8 883.07L-31.41 839.07L-31.41 751.07zM44.8 971.07L121.01 1015.07L121.01 1103.07L44.8 1147.07L-31.41 1103.07L-31.41 1015.07zM121.01 1103.07L197.22 1147.07L197.22 1235.07L121.01 1279.07L44.8 1235.07L44.8 1147.07zM121.01 1367.07L197.22 1411.07L197.22 1499.07L121.01 1543.07L44.8 1499.07L44.8 1411.07zM121.01 1631.07L197.22 1675.07L197.22 1763.07L121.01 1807.07L44.8 1763.07L44.8 1675.07zM44.8 1763.07L121.01 1807.07L121.01 1895.07L44.8 1939.07L-31.41 1895.07L-31.41 1807.07zM44.8 2291.07L121.01 2335.07L121.01 2423.07L44.8 2467.07L-31.41 2423.07L-31.41 2335.07zM121.01 2423.07L197.22 2467.07L197.22 2555.07L121.01 2599.07L44.8 2555.07L44.8 2467.07zM121.01 2951.07L197.22 2995.07L197.22 3083.07L121.01 3127.07L44.8 3083.07L44.8 2995.07zM44.8 3083.07L121.01 3127.07L121.01 3215.07L44.8 3259.07L-31.41 3215.07L-31.41 3127.07zM44.8 3611.07L121.01 3655.07L121.01 3743.07L44.8 3787.07L-31.41 3743.07L-31.41 3655.07zM121.01 3743.07L197.22 3787.07L197.22 3875.07L121.01 3919.07L44.8 3875.07L44.8 3787.07zM273.44 47.07L349.65 91.07L349.65 179.07L273.44 223.07L197.22 179.07L197.22 91.07zM197.22 443.07L273.44 487.07L273.44 575.07L197.22 619.07L121.01 575.07L121.01 487.07zM273.44 575.07L349.65 619.07L349.65 707.07L273.44 751.07L197.22 707.07L197.22 619.07zM197.22 707.07L273.44 751.07L273.44 839.07L197.22 883.07L121.01 839.07L121.01 751.07zM197.22 971.07L273.44 1015.07L273.44 1103.07L197.22 1147.07L121.01 1103.07L121.01 1015.07zM197.22 1235.07L273.44 1279.07L273.44 1367.07L197.22 1411.07L121.01 1367.07L121.01 1279.07zM273.44 1367.07L349.65 1411.07L349.65 1499.07L273.44 1543.07L197.22 1499.07L197.22 1411.07zM197.22 1499.07L273.44 1543.07L273.44 1631.07L197.22 1675.07L121.01 1631.07L121.01 1543.07zM273.44 1631.07L349.65 1675.07L349.65 1763.07L273.44 1807.07L197.22 1763.07L197.22 1675.07zM273.44 2159.07L349.65 2203.07L349.65 2291.07L273.44 2335.07L197.22 2291.07L197.22 2203.07zM197.22 2291.07L273.44 2335.07L273.44 2423.07L197.22 2467.07L121.01 2423.07L121.01 2335.07zM273.44 2423.07L349.65 2467.07L349.65 2555.07L273.44 2599.07L197.22 2555.07L197.22 2467.07zM197.22 2555.07L273.44 2599.07L273.44 2687.07L197.22 2731.07L121.01 2687.07L121.01 2599.07zM197.22 2819.07L273.44 2863.07L273.44 2951.07L197.22 2995.07L121.01 2951.07L121.01 2863.07zM197.22 3347.07L273.44 3391.07L273.44 3479.07L197.22 3523.07L121.01 3479.07L121.01 3391.07zM197.22 3611.07L273.44 3655.07L273.44 3743.07L197.22 3787.07L121.01 3743.07L121.01 3655.07zM349.65 -84.93L425.86 -40.93L425.86 47.07L349.65 91.07L273.44 47.07L273.44 -40.93zM349.65 443.07L425.86 487.07L425.86 575.07L349.65 619.07L273.44 575.07L273.44 487.07zM425.86 575.07L502.07 619.07L502.07 707.07L425.86 751.07L349.65 707.07L349.65 619.07zM425.86 839.07L502.07 883.07L502.07 971.07L425.86 1015.07L349.65 971.07L349.65 883.07zM349.65 1235.07L425.86 1279.07L425.86 1367.07L349.65 1411.07L273.44 1367.07L273.44 1279.07zM425.86 1367.07L502.07 1411.07L502.07 1499.07L425.86 1543.07L349.65 1499.07L349.65 1411.07zM349.65 1763.07L425.86 1807.07L425.86 1895.07L349.65 1939.07L273.44 1895.07L273.44 1807.07zM425.86 1895.07L502.07 1939.07L502.07 2027.07L425.86 2071.07L349.65 2027.07L349.65 1939.07zM425.86 2159.07L502.07 2203.07L502.07 2291.07L425.86 2335.07L349.65 2291.07L349.65 2203.07zM349.65 3875.07L425.86 3919.07L425.86 4007.07L349.65 4051.07L273.44 4007.07L273.44 3919.07zM578.29 47.07L654.5 91.07L654.5 179.07L578.29 223.07L502.07 179.07L502.07 91.07zM578.29 575.07L654.5 619.07L654.5 707.07L578.29 751.07L502.07 707.07L502.07 619.07zM578.29 839.07L654.5 883.07L654.5 971.07L578.29 1015.07L502.07 971.07L502.07 883.07zM502.07 971.07L578.29 1015.07L578.29 1103.07L502.07 1147.07L425.86 1103.07L425.86 1015.07zM578.29 1103.07L654.5 1147.07L654.5 1235.07L578.29 1279.07L502.07 1235.07L502.07 1147.07zM502.07 2027.07L578.29 2071.07L578.29 2159.07L502.07 2203.07L425.86 2159.07L425.86 2071.07zM502.07 3083.07L578.29 3127.07L578.29 3215.07L502.07 3259.07L425.86 3215.07L425.86 3127.07zM578.29 3215.07L654.5 3259.07L654.5 3347.07L578.29 3391.07L502.07 3347.07L502.07 3259.07zM578.29 3479.07L654.5 3523.07L654.5 3611.07L578.29 3655.07L502.07 3611.07L502.07 3523.07zM502.07 3611.07L578.29 3655.07L578.29 3743.07L502.07 3787.07L425.86 3743.07L425.86 3655.07zM654.5 -84.93L730.71 -40.93L730.71 47.07L654.5 91.07L578.29 47.07L578.29 -40.93zM730.71 47.07L806.92 91.07L806.92 179.07L730.71 223.07L654.5 179.07L654.5 91.07zM654.5 707.07L730.71 751.07L730.71 839.07L654.5 883.07L578.29 839.07L578.29 751.07zM730.71 839.07L806.92 883.07L806.92 971.07L730.71 1015.07L654.5 971.07L654.5 883.07zM730.71 1367.07L806.92 1411.07L806.92 1499.07L730.71 1543.07L654.5 1499.07L654.5 1411.07zM654.5 1499.07L730.71 1543.07L730.71 1631.07L654.5 1675.07L578.29 1631.07L578.29 1543.07zM654.5 2291.07L730.71 2335.07L730.71 2423.07L654.5 2467.07L578.29 2423.07L578.29 2335.07zM654.5 2555.07L730.71 2599.07L730.71 2687.07L654.5 2731.07L578.29 2687.07L578.29 2599.07zM654.5 2819.07L730.71 2863.07L730.71 2951.07L654.5 2995.07L578.29 2951.07L578.29 2863.07zM730.71 2951.07L806.92 2995.07L806.92 3083.07L730.71 3127.07L654.5 3083.07L654.5 2995.07zM654.5 3611.07L730.71 3655.07L730.71 3743.07L654.5 3787.07L578.29 3743.07L578.29 3655.07zM654.5 3875.07L730.71 3919.07L730.71 4007.07L654.5 4051.07L578.29 4007.07L578.29 3919.07zM806.92 -84.93L883.14 -40.93L883.14 47.07L806.92 91.07L730.71 47.07L730.71 -40.93zM806.92 179.07L883.14 223.07L883.14 311.07L806.92 355.07L730.71 311.07L730.71 223.07zM806.92 443.07L883.14 487.07L883.14 575.07L806.92 619.07L730.71 575.07L730.71 487.07zM883.14 575.07L959.35 619.07L959.35 707.07L883.14 751.07L806.92 707.07L806.92 619.07zM806.92 707.07L883.14 751.07L883.14 839.07L806.92 883.07L730.71 839.07L730.71 751.07zM883.14 839.07L959.35 883.07L959.35 971.07L883.14 1015.07L806.92 971.07L806.92 883.07zM806.92 971.07L883.14 1015.07L883.14 1103.07L806.92 1147.07L730.71 1103.07L730.71 1015.07zM883.14 1367.07L959.35 1411.07L959.35 1499.07L883.14 1543.07L806.92 1499.07L806.92 1411.07zM806.92 1499.07L883.14 1543.07L883.14 1631.07L806.92 1675.07L730.71 1631.07L730.71 1543.07zM883.14 1631.07L959.35 1675.07L959.35 1763.07L883.14 1807.07L806.92 1763.07L806.92 1675.07zM883.14 1895.07L959.35 1939.07L959.35 2027.07L883.14 2071.07L806.92 2027.07L806.92 1939.07zM883.14 2159.07L959.35 2203.07L959.35 2291.07L883.14 2335.07L806.92 2291.07L806.92 2203.07zM806.92 2555.07L883.14 2599.07L883.14 2687.07L806.92 2731.07L730.71 2687.07L730.71 2599.07zM806.92 2819.07L883.14 2863.07L883.14 2951.07L806.92 2995.07L730.71 2951.07L730.71 2863.07zM883.14 2951.07L959.35 2995.07L959.35 3083.07L883.14 3127.07L806.92 3083.07L806.92 2995.07zM806.92 3347.07L883.14 3391.07L883.14 3479.07L806.92 3523.07L730.71 3479.07L730.71 3391.07zM883.14 3479.07L959.35 3523.07L959.35 3611.07L883.14 3655.07L806.92 3611.07L806.92 3523.07zM883.14 3743.07L959.35 3787.07L959.35 3875.07L883.14 3919.07L806.92 3875.07L806.92 3787.07zM806.92 3875.07L883.14 3919.07L883.14 4007.07L806.92 4051.07L730.71 4007.07L730.71 3919.07zM959.35 -84.93L1035.56 -40.93L1035.56 47.07L959.35 91.07L883.14 47.07L883.14 -40.93zM1035.56 47.07L1111.77 91.07L1111.77 179.07L1035.56 223.07L959.35 179.07L959.35 91.07zM959.35 707.07L1035.56 751.07L1035.56 839.07L959.35 883.07L883.14 839.07L883.14 751.07zM959.35 1235.07L1035.56 1279.07L1035.56 1367.07L959.35 1411.07L883.14 1367.07L883.14 1279.07zM1035.56 1367.07L1111.77 1411.07L1111.77 1499.07L1035.56 1543.07L959.35 1499.07L959.35 1411.07zM959.35 1499.07L1035.56 1543.07L1035.56 1631.07L959.35 1675.07L883.14 1631.07L883.14 1543.07zM1035.56 1895.07L1111.77 1939.07L1111.77 2027.07L1035.56 2071.07L959.35 2027.07L959.35 1939.07zM959.35 2027.07L1035.56 2071.07L1035.56 2159.07L959.35 2203.07L883.14 2159.07L883.14 2071.07zM959.35 2291.07L1035.56 2335.07L1035.56 2423.07L959.35 2467.07L883.14 2423.07L883.14 2335.07zM1035.56 2423.07L1111.77 2467.07L1111.77 2555.07L1035.56 2599.07L959.35 2555.07L959.35 2467.07zM1035.56 2687.07L1111.77 2731.07L1111.77 2819.07L1035.56 2863.07L959.35 2819.07L959.35 2731.07zM1035.56 2951.07L1111.77 2995.07L1111.77 3083.07L1035.56 3127.07L959.35 3083.07L959.35 2995.07zM1035.56 3215.07L1111.77 3259.07L1111.77 3347.07L1035.56 3391.07L959.35 3347.07L959.35 3259.07zM959.35 3611.07L1035.56 3655.07L1035.56 3743.07L959.35 3787.07L883.14 3743.07L883.14 3655.07zM1035.56 3743.07L1111.77 3787.07L1111.77 3875.07L1035.56 3919.07L959.35 3875.07L959.35 3787.07zM1111.77 -84.93L1187.99 -40.93L1187.99 47.07L1111.77 91.07L1035.56 47.07L1035.56 -40.93zM1111.77 443.07L1187.99 487.07L1187.99 575.07L1111.77 619.07L1035.56 575.07L1035.56 487.07zM1111.77 707.07L1187.99 751.07L1187.99 839.07L1111.77 883.07L1035.56 839.07L1035.56 751.07zM1187.99 839.07L1264.2 883.07L1264.2 971.07L1187.99 1015.07L1111.77 971.07L1111.77 883.07zM1187.99 1103.07L1264.2 1147.07L1264.2 1235.07L1187.99 1279.07L1111.77 1235.07L1111.77 1147.07zM1187.99 1367.07L1264.2 1411.07L1264.2 1499.07L1187.99 1543.07L1111.77 1499.07L1111.77 1411.07zM1187.99 1631.07L1264.2 1675.07L1264.2 1763.07L1187.99 1807.07L1111.77 1763.07L1111.77 1675.07zM1111.77 2027.07L1187.99 2071.07L1187.99 2159.07L1111.77 2203.07L1035.56 2159.07L1035.56 2071.07zM1187.99 2159.07L1264.2 2203.07L1264.2 2291.07L1187.99 2335.07L1111.77 2291.07L1111.77 2203.07zM1187.99 2423.07L1264.2 2467.07L1264.2 2555.07L1187.99 2599.07L1111.77 2555.07L1111.77 2467.07zM1111.77 2555.07L1187.99 2599.07L1187.99 2687.07L1111.77 2731.07L1035.56 2687.07L1035.56 2599.07zM1187.99 2687.07L1264.2 2731.07L1264.2 2819.07L1187.99 2863.07L1111.77 2819.07L1111.77 2731.07zM1111.77 2819.07L1187.99 2863.07L1187.99 2951.07L1111.77 2995.07L1035.56 2951.07L1035.56 2863.07zM1187.99 2951.07L1264.2 2995.07L1264.2 3083.07L1187.99 3127.07L1111.77 3083.07L1111.77 2995.07zM1111.77 3083.07L1187.99 3127.07L1187.99 3215.07L1111.77 3259.07L1035.56 3215.07L1035.56 3127.07zM1187.99 3479.07L1264.2 3523.07L1264.2 3611.07L1187.99 3655.07L1111.77 3611.07L1111.77 3523.07zM1111.77 3611.07L1187.99 3655.07L1187.99 3743.07L1111.77 3787.07L1035.56 3743.07L1035.56 3655.07zM1264.2 -84.93L1340.41 -40.93L1340.41 47.07L1264.2 91.07L1187.99 47.07L1187.99 -40.93zM1340.41 575.07L1416.62 619.07L1416.62 707.07L1340.41 751.07L1264.2 707.07L1264.2 619.07zM1340.41 1103.07L1416.62 1147.07L1416.62 1235.07L1340.41 1279.07L1264.2 1235.07L1264.2 1147.07zM1264.2 1499.07L1340.41 1543.07L1340.41 1631.07L1264.2 1675.07L1187.99 1631.07L1187.99 1543.07zM1264.2 1763.07L1340.41 1807.07L1340.41 1895.07L1264.2 1939.07L1187.99 1895.07L1187.99 1807.07zM1340.41 1895.07L1416.62 1939.07L1416.62 2027.07L1340.41 2071.07L1264.2 2027.07L1264.2 1939.07zM1340.41 2159.07L1416.62 2203.07L1416.62 2291.07L1340.41 2335.07L1264.2 2291.07L1264.2 2203.07zM1264.2 2291.07L1340.41 2335.07L1340.41 2423.07L1264.2 2467.07L1187.99 2423.07L1187.99 2335.07zM1340.41 2423.07L1416.62 2467.07L1416.62 2555.07L1340.41 2599.07L1264.2 2555.07L1264.2 2467.07zM1264.2 2555.07L1340.41 2599.07L1340.41 2687.07L1264.2 2731.07L1187.99 2687.07L1187.99 2599.07zM1264.2 2819.07L1340.41 2863.07L1340.41 2951.07L1264.2 2995.07L1187.99 2951.07L1187.99 2863.07zM1340.41 3215.07L1416.62 3259.07L1416.62 3347.07L1340.41 3391.07L1264.2 3347.07L1264.2 3259.07zM1340.41 3743.07L1416.62 3787.07L1416.62 3875.07L1340.41 3919.07L1264.2 3875.07L1264.2 3787.07zM1416.62 179.07L1492.84 223.07L1492.84 311.07L1416.62 355.07L1340.41 311.07L1340.41 223.07zM1492.84 311.07L1569.05 355.07L1569.05 443.07L1492.84 487.07L1416.62 443.07L1416.62 355.07zM1416.62 707.07L1492.84 751.07L1492.84 839.07L1416.62 883.07L1340.41 839.07L1340.41 751.07zM1416.62 971.07L1492.84 1015.07L1492.84 1103.07L1416.62 1147.07L1340.41 1103.07L1340.41 1015.07zM1416.62 1235.07L1492.84 1279.07L1492.84 1367.07L1416.62 1411.07L1340.41 1367.07L1340.41 1279.07zM1492.84 1895.07L1569.05 1939.07L1569.05 2027.07L1492.84 2071.07L1416.62 2027.07L1416.62 1939.07zM1416.62 2291.07L1492.84 2335.07L1492.84 2423.07L1416.62 2467.07L1340.41 2423.07L1340.41 2335.07zM1416.62 2555.07L1492.84 2599.07L1492.84 2687.07L1416.62 2731.07L1340.41 2687.07L1340.41 2599.07zM1492.84 2687.07L1569.05 2731.07L1569.05 2819.07L1492.84 2863.07L1416.62 2819.07L1416.62 2731.07zM1416.62 3083.07L1492.84 3127.07L1492.84 3215.07L1416.62 3259.07L1340.41 3215.07L1340.41 3127.07zM1492.84 3479.07L1569.05 3523.07L1569.05 3611.07L1492.84 3655.07L1416.62 3611.07L1416.62 3523.07zM1416.62 3611.07L1492.84 3655.07L1492.84 3743.07L1416.62 3787.07L1340.41 3743.07L1340.41 3655.07zM1645.26 311.07L1721.47 355.07L1721.47 443.07L1645.26 487.07L1569.05 443.07L1569.05 355.07zM1645.26 575.07L1721.47 619.07L1721.47 707.07L1645.26 751.07L1569.05 707.07L1569.05 619.07zM1645.26 1367.07L1721.47 1411.07L1721.47 1499.07L1645.26 1543.07L1569.05 1499.07L1569.05 1411.07zM1569.05 1499.07L1645.26 1543.07L1645.26 1631.07L1569.05 1675.07L1492.84 1631.07L1492.84 1543.07zM1645.26 1631.07L1721.47 1675.07L1721.47 1763.07L1645.26 1807.07L1569.05 1763.07L1569.05 1675.07zM1645.26 1895.07L1721.47 1939.07L1721.47 2027.07L1645.26 2071.07L1569.05 2027.07L1569.05 1939.07zM1569.05 2291.07L1645.26 2335.07L1645.26 2423.07L1569.05 2467.07L1492.84 2423.07L1492.84 2335.07zM1569.05 2555.07L1645.26 2599.07L1645.26 2687.07L1569.05 2731.07L1492.84 2687.07L1492.84 2599.07zM1645.26 2687.07L1721.47 2731.07L1721.47 2819.07L1645.26 2863.07L1569.05 2819.07L1569.05 2731.07zM1569.05 3083.07L1645.26 3127.07L1645.26 3215.07L1569.05 3259.07L1492.84 3215.07L1492.84 3127.07zM1645.26 3215.07L1721.47 3259.07L1721.47 3347.07L1645.26 3391.07L1569.05 3347.07L1569.05 3259.07zM1721.47 -84.93L1797.69 -40.93L1797.69 47.07L1721.47 91.07L1645.26 47.07L1645.26 -40.93zM1721.47 443.07L1797.69 487.07L1797.69 575.07L1721.47 619.07L1645.26 575.07L1645.26 487.07zM1721.47 971.07L1797.69 1015.07L1797.69 1103.07L1721.47 1147.07L1645.26 1103.07L1645.26 1015.07zM1721.47 1499.07L1797.69 1543.07L1797.69 1631.07L1721.47 1675.07L1645.26 1631.07L1645.26 1543.07zM1797.69 1631.07L1873.9 1675.07L1873.9 1763.07L1797.69 1807.07L1721.47 1763.07L1721.47 1675.07zM1721.47 2027.07L1797.69 2071.07L1797.69 2159.07L1721.47 2203.07L1645.26 2159.07L1645.26 2071.07zM1721.47 2555.07L1797.69 2599.07L1797.69 2687.07L1721.47 2731.07L1645.26 2687.07L1645.26 2599.07zM1797.69 2951.07L1873.9 2995.07L1873.9 3083.07L1797.69 3127.07L1721.47 3083.07L1721.47 2995.07zM1721.47 3083.07L1797.69 3127.07L1797.69 3215.07L1721.47 3259.07L1645.26 3215.07L1645.26 3127.07zM1797.69 3215.07L1873.9 3259.07L1873.9 3347.07L1797.69 3391.07L1721.47 3347.07L1721.47 3259.07zM1721.47 3347.07L1797.69 3391.07L1797.69 3479.07L1721.47 3523.07L1645.26 3479.07L1645.26 3391.07zM1721.47 3611.07L1797.69 3655.07L1797.69 3743.07L1721.47 3787.07L1645.26 3743.07L1645.26 3655.07zM1873.9 -84.93L1950.11 -40.93L1950.11 47.07L1873.9 91.07L1797.69 47.07L1797.69 -40.93zM1873.9 179.07L1950.11 223.07L1950.11 311.07L1873.9 355.07L1797.69 311.07L1797.69 223.07zM1950.11 311.07L2026.32 355.07L2026.32 443.07L1950.11 487.07L1873.9 443.07L1873.9 355.07zM1950.11 575.07L2026.32 619.07L2026.32 707.07L1950.11 751.07L1873.9 707.07L1873.9 619.07zM1950.11 839.07L2026.32 883.07L2026.32 971.07L1950.11 1015.07L1873.9 971.07L1873.9 883.07zM1873.9 971.07L1950.11 1015.07L1950.11 1103.07L1873.9 1147.07L1797.69 1103.07L1797.69 1015.07zM1873.9 1235.07L1950.11 1279.07L1950.11 1367.07L1873.9 1411.07L1797.69 1367.07L1797.69 1279.07zM1950.11 1367.07L2026.32 1411.07L2026.32 1499.07L1950.11 1543.07L1873.9 1499.07L1873.9 1411.07zM1873.9 1499.07L1950.11 1543.07L1950.11 1631.07L1873.9 1675.07L1797.69 1631.07L1797.69 1543.07zM1873.9 2027.07L1950.11 2071.07L1950.11 2159.07L1873.9 2203.07L1797.69 2159.07L1797.69 2071.07zM1950.11 2687.07L2026.32 2731.07L2026.32 2819.07L1950.11 2863.07L1873.9 2819.07L1873.9 2731.07zM1950.11 2951.07L2026.32 2995.07L2026.32 3083.07L1950.11 3127.07L1873.9 3083.07L1873.9 2995.07zM1873.9 3083.07L1950.11 3127.07L1950.11 3215.07L1873.9 3259.07L1797.69 3215.07L1797.69 3127.07zM1873.9 3347.07L1950.11 3391.07L1950.11 3479.07L1873.9 3523.07L1797.69 3479.07L1797.69 3391.07zM1950.11 3479.07L2026.32 3523.07L2026.32 3611.07L1950.11 3655.07L1873.9 3611.07L1873.9 3523.07zM1950.11 3743.07L2026.32 3787.07L2026.32 3875.07L1950.11 3919.07L1873.9 3875.07L1873.9 3787.07z" stroke="rgba(0, 0, 0, 0)" stroke-width="2"></path>
        <path d="M36 -84.93 a8.8 8.8 0 1 0 17.6 0 a8.8 8.8 0 1 0 -17.6 0zM112.21 -40.93 a8.8 8.8 0 1 0 17.6 0 a8.8 8.8 0 1 0 -17.6 0zM112.21 47.07 a8.8 8.8 0 1 0 17.6 0 a8.8 8.8 0 1 0 -17.6 0zM36 91.07 a8.8 8.8 0 1 0 17.6 0 a8.8 8.8 0 1 0 -17.6 0zM-40.21 47.07 a8.8 8.8 0 1 0 17.6 0 a8.8 8.8 0 1 0 -17.6 0zM-40.21 -40.93 a8.8 8.8 0 1 0 17.6 0 a8.8 8.8 0 1 0 -17.6 0zM36 707.07 a8.8 8.8 0 1 0 17.6 0 a8.8 8.8 0 1 0 -17.6 0zM112.21 751.07 a8.8 8.8 0 1 0 17.6 0 a8.8 8.8 0 1 0 -17.6 0zM112.21 839.07 a8.8 8.8 0 1 0 17.6 0 a8.8 8.8 0 1 0 -17.6 0zM36 883.07 a8.8 8.8 0 1 0 17.6 0 a8.8 8.8 0 1 0 -17.6 0zM-40.21 839.07 a8.8 8.8 0 1 0 17.6 0 a8.8 8.8 0 1 0 -17.6 0zM-40.21 751.07 a8.8 8.8 0 1 0 17.6 0 a8.8 8.8 0 1 0 -17.6 0zM36 971.07 a8.8 8.8 0 1 0 17.6 0 a8.8 8.8 0 1 0 -17.6 0zM112.21 1015.07 a8.8 8.8 0 1 0 17.6 0 a8.8 8.8 0 1 0 -17.6 0zM112.21 1103.07 a8.8 8.8 0 1 0 17.6 0 a8.8 8.8 0 1 0 -17.6 0zM36 1147.07 a8.8 8.8 0 1 0 17.6 0 a8.8 8.8 0 1 0 -17.6 0zM-40.21 1103.07 a8.8 8.8 0 1 0 17.6 0 a8.8 8.8 0 1 0 -17.6 0zM-40.21 1015.07 a8.8 8.8 0 1 0 17.6 0 a8.8 8.8 0 1 0 -17.6 0zM188.42 1147.07 a8.8 8.8 0 1 0 17.6 0 a8.8 8.8 0 1 0 -17.6 0zM188.42 1235.07 a8.8 8.8 0 1 0 17.6 0 a8.8 8.8 0 1 0 -17.6 0zM112.21 1279.07 a8.8 8.8 0 1 0 17.6 0 a8.8 8.8 0 1 0 -17.6 0zM36 1235.07 a8.8 8.8 0 1 0 17.6 0 a8.8 8.8 0 1 0 -17.6 0zM112.21 1367.07 a8.8 8.8 0 1 0 17.6 0 a8.8 8.8 0 1 0 -17.6 0zM188.42 1411.07 a8.8 8.8 0 1 0 17.6 0 a8.8 8.8 0 1 0 -17.6 0zM188.42 1499.07 a8.8 8.8 0 1 0 17.6 0 a8.8 8.8 0 1 0 -17.6 0zM112.21 1543.07 a8.8 8.8 0 1 0 17.6 0 a8.8 8.8 0 1 0 -17.6 0zM36 1499.07 a8.8 8.8 0 1 0 17.6 0 a8.8 8.8 0 1 0 -17.6 0zM36 1411.07 a8.8 8.8 0 1 0 17.6 0 a8.8 8.8 0 1 0 -17.6 0zM112.21 1631.07 a8.8 8.8 0 1 0 17.6 0 a8.8 8.8 0 1 0 -17.6 0zM188.42 1675.07 a8.8 8.8 0 1 0 17.6 0 a8.8 8.8 0 1 0 -17.6 0zM188.42 1763.07 a8.8 8.8 0 1 0 17.6 0 a8.8 8.8 0 1 0 -17.6 0zM112.21 1807.07 a8.8 8.8 0 1 0 17.6 0 a8.8 8.8 0 1 0 -17.6 0zM36 1763.07 a8.8 8.8 0 1 0 17.6 0 a8.8 8.8 0 1 0 -17.6 0zM36 1675.07 a8.8 8.8 0 1 0 17.6 0 a8.8 8.8 0 1 0 -17.6 0zM112.21 1895.07 a8.8 8.8 0 1 0 17.6 0 a8.8 8.8 0 1 0 -17.6 0zM36 1939.07 a8.8 8.8 0 1 0 17.6 0 a8.8 8.8 0 1 0 -17.6 0zM-40.21 1895.07 a8.8 8.8 0 1 0 17.6 0 a8.8 8.8 0 1 0 -17.6 0zM-40.21 1807.07 a8.8 8.8 0 1 0 17.6 0 a8.8 8.8 0 1 0 -17.6 0zM36 2291.07 a8.8 8.8 0 1 0 17.6 0 a8.8 8.8 0 1 0 -17.6 0zM112.21 2335.07 a8.8 8.8 0 1 0 17.6 0 a8.8 8.8 0 1 0 -17.6 0zM112.21 2423.07 a8.8 8.8 0 1 0 17.6 0 a8.8 8.8 0 1 0 -17.6 0zM36 2467.07 a8.8 8.8 0 1 0 17.6 0 a8.8 8.8 0 1 0 -17.6 0zM-40.21 2423.07 a8.8 8.8 0 1 0 17.6 0 a8.8 8.8 0 1 0 -17.6 0zM-40.21 2335.07 a8.8 8.8 0 1 0 17.6 0 a8.8 8.8 0 1 0 -17.6 0zM188.42 2467.07 a8.8 8.8 0 1 0 17.6 0 a8.8 8.8 0 1 0 -17.6 0zM188.42 2555.07 a8.8 8.8 0 1 0 17.6 0 a8.8 8.8 0 1 0 -17.6 0zM112.21 2599.07 a8.8 8.8 0 1 0 17.6 0 a8.8 8.8 0 1 0 -17.6 0zM36 2555.07 a8.8 8.8 0 1 0 17.6 0 a8.8 8.8 0 1 0 -17.6 0zM112.21 2951.07 a8.8 8.8 0 1 0 17.6 0 a8.8 8.8 0 1 0 -17.6 0zM188.42 2995.07 a8.8 8.8 0 1 0 17.6 0 a8.8 8.8 0 1 0 -17.6 0zM188.42 3083.07 a8.8 8.8 0 1 0 17.6 0 a8.8 8.8 0 1 0 -17.6 0zM112.21 3127.07 a8.8 8.8 0 1 0 17.6 0 a8.8 8.8 0 1 0 -17.6 0zM36 3083.07 a8.8 8.8 0 1 0 17.6 0 a8.8 8.8 0 1 0 -17.6 0zM36 2995.07 a8.8 8.8 0 1 0 17.6 0 a8.8 8.8 0 1 0 -17.6 0zM112.21 3215.07 a8.8 8.8 0 1 0 17.6 0 a8.8 8.8 0 1 0 -17.6 0zM36 3259.07 a8.8 8.8 0 1 0 17.6 0 a8.8 8.8 0 1 0 -17.6 0zM-40.21 3215.07 a8.8 8.8 0 1 0 17.6 0 a8.8 8.8 0 1 0 -17.6 0zM-40.21 3127.07 a8.8 8.8 0 1 0 17.6 0 a8.8 8.8 0 1 0 -17.6 0zM36 3611.07 a8.8 8.8 0 1 0 17.6 0 a8.8 8.8 0 1 0 -17.6 0zM112.21 3655.07 a8.8 8.8 0 1 0 17.6 0 a8.8 8.8 0 1 0 -17.6 0zM112.21 3743.07 a8.8 8.8 0 1 0 17.6 0 a8.8 8.8 0 1 0 -17.6 0zM36 3787.07 a8.8 8.8 0 1 0 17.6 0 a8.8 8.8 0 1 0 -17.6 0zM-40.21 3743.07 a8.8 8.8 0 1 0 17.6 0 a8.8 8.8 0 1 0 -17.6 0zM-40.21 3655.07 a8.8 8.8 0 1 0 17.6 0 a8.8 8.8 0 1 0 -17.6 0zM188.42 3787.07 a8.8 8.8 0 1 0 17.6 0 a8.8 8.8 0 1 0 -17.6 0zM188.42 3875.07 a8.8 8.8 0 1 0 17.6 0 a8.8 8.8 0 1 0 -17.6 0zM112.21 3919.07 a8.8 8.8 0 1 0 17.6 0 a8.8 8.8 0 1 0 -17.6 0zM36 3875.07 a8.8 8.8 0 1 0 17.6 0 a8.8 8.8 0 1 0 -17.6 0zM264.64 47.07 a8.8 8.8 0 1 0 17.6 0 a8.8 8.8 0 1 0 -17.6 0zM340.85 91.07 a8.8 8.8 0 1 0 17.6 0 a8.8 8.8 0 1 0 -17.6 0zM340.85 179.07 a8.8 8.8 0 1 0 17.6 0 a8.8 8.8 0 1 0 -17.6 0zM264.64 223.07 a8.8 8.8 0 1 0 17.6 0 a8.8 8.8 0 1 0 -17.6 0zM188.42 179.07 a8.8 8.8 0 1 0 17.6 0 a8.8 8.8 0 1 0 -17.6 0zM188.42 91.07 a8.8 8.8 0 1 0 17.6 0 a8.8 8.8 0 1 0 -17.6 0zM188.42 443.07 a8.8 8.8 0 1 0 17.6 0 a8.8 8.8 0 1 0 -17.6 0zM264.64 487.07 a8.8 8.8 0 1 0 17.6 0 a8.8 8.8 0 1 0 -17.6 0zM264.64 575.07 a8.8 8.8 0 1 0 17.6 0 a8.8 8.8 0 1 0 -17.6 0zM188.42 619.07 a8.8 8.8 0 1 0 17.6 0 a8.8 8.8 0 1 0 -17.6 0zM112.21 575.07 a8.8 8.8 0 1 0 17.6 0 a8.8 8.8 0 1 0 -17.6 0zM112.21 487.07 a8.8 8.8 0 1 0 17.6 0 a8.8 8.8 0 1 0 -17.6 0zM340.85 619.07 a8.8 8.8 0 1 0 17.6 0 a8.8 8.8 0 1 0 -17.6 0zM340.85 707.07 a8.8 8.8 0 1 0 17.6 0 a8.8 8.8 0 1 0 -17.6 0zM264.64 751.07 a8.8 8.8 0 1 0 17.6 0 a8.8 8.8 0 1 0 -17.6 0zM188.42 707.07 a8.8 8.8 0 1 0 17.6 0 a8.8 8.8 0 1 0 -17.6 0zM264.64 839.07 a8.8 8.8 0 1 0 17.6 0 a8.8 8.8 0 1 0 -17.6 0zM188.42 883.07 a8.8 8.8 0 1 0 17.6 0 a8.8 8.8 0 1 0 -17.6 0zM188.42 971.07 a8.8 8.8 0 1 0 17.6 0 a8.8 8.8 0 1 0 -17.6 0zM264.64 1015.07 a8.8 8.8 0 1 0 17.6 0 a8.8 8.8 0 1 0 -17.6 0zM264.64 1103.07 a8.8 8.8 0 1 0 17.6 0 a8.8 8.8 0 1 0 -17.6 0zM264.64 1279.07 a8.8 8.8 0 1 0 17.6 0 a8.8 8.8 0 1 0 -17.6 0zM264.64 1367.07 a8.8 8.8 0 1 0 17.6 0 a8.8 8.8 0 1 0 -17.6 0zM340.85 1411.07 a8.8 8.8 0 1 0 17.6 0 a8.8 8.8 0 1 0 -17.6 0zM340.85 1499.07 a8.8 8.8 0 1 0 17.6 0 a8.8 8.8 0 1 0 -17.6 0zM264.64 1543.07 a8.8 8.8 0 1 0 17.6 0 a8.8 8.8 0 1 0 -17.6 0zM264.64 1631.07 a8.8 8.8 0 1 0 17.6 0 a8.8 8.8 0 1 0 -17.6 0zM340.85 1675.07 a8.8 8.8 0 1 0 17.6 0 a8.8 8.8 0 1 0 -17.6 0zM340.85 1763.07 a8.8 8.8 0 1 0 17.6 0 a8.8 8.8 0 1 0 -17.6 0zM264.64 1807.07 a8.8 8.8 0 1 0 17.6 0 a8.8 8.8 0 1 0 -17.6 0zM264.64 2159.07 a8.8 8.8 0 1 0 17.6 0 a8.8 8.8 0 1 0 -17.6 0zM340.85 2203.07 a8.8 8.8 0 1 0 17.6 0 a8.8 8.8 0 1 0 -17.6 0zM340.85 2291.07 a8.8 8.8 0 1 0 17.6 0 a8.8 8.8 0 1 0 -17.6 0zM264.64 2335.07 a8.8 8.8 0 1 0 17.6 0 a8.8 8.8 0 1 0 -17.6 0zM188.42 2291.07 a8.8 8.8 0 1 0 17.6 0 a8.8 8.8 0 1 0 -17.6 0zM188.42 2203.07 a8.8 8.8 0 1 0 17.6 0 a8.8 8.8 0 1 0 -17.6 0zM264.64 2423.07 a8.8 8.8 0 1 0 17.6 0 a8.8 8.8 0 1 0 -17.6 0zM340.85 2467.07 a8.8 8.8 0 1 0 17.6 0 a8.8 8.8 0 1 0 -17.6 0zM340.85 2555.07 a8.8 8.8 0 1 0 17.6 0 a8.8 8.8 0 1 0 -17.6 0zM264.64 2599.07 a8.8 8.8 0 1 0 17.6 0 a8.8 8.8 0 1 0 -17.6 0zM264.64 2687.07 a8.8 8.8 0 1 0 17.6 0 a8.8 8.8 0 1 0 -17.6 0zM188.42 2731.07 a8.8 8.8 0 1 0 17.6 0 a8.8 8.8 0 1 0 -17.6 0zM112.21 2687.07 a8.8 8.8 0 1 0 17.6 0 a8.8 8.8 0 1 0 -17.6 0zM188.42 2819.07 a8.8 8.8 0 1 0 17.6 0 a8.8 8.8 0 1 0 -17.6 0zM264.64 2863.07 a8.8 8.8 0 1 0 17.6 0 a8.8 8.8 0 1 0 -17.6 0zM264.64 2951.07 a8.8 8.8 0 1 0 17.6 0 a8.8 8.8 0 1 0 -17.6 0zM112.21 2863.07 a8.8 8.8 0 1 0 17.6 0 a8.8 8.8 0 1 0 -17.6 0zM188.42 3347.07 a8.8 8.8 0 1 0 17.6 0 a8.8 8.8 0 1 0 -17.6 0zM264.64 3391.07 a8.8 8.8 0 1 0 17.6 0 a8.8 8.8 0 1 0 -17.6 0zM264.64 3479.07 a8.8 8.8 0 1 0 17.6 0 a8.8 8.8 0 1 0 -17.6 0zM188.42 3523.07 a8.8 8.8 0 1 0 17.6 0 a8.8 8.8 0 1 0 -17.6 0zM112.21 3479.07 a8.8 8.8 0 1 0 17.6 0 a8.8 8.8 0 1 0 -17.6 0zM112.21 3391.07 a8.8 8.8 0 1 0 17.6 0 a8.8 8.8 0 1 0 -17.6 0zM188.42 3611.07 a8.8 8.8 0 1 0 17.6 0 a8.8 8.8 0 1 0 -17.6 0zM264.64 3655.07 a8.8 8.8 0 1 0 17.6 0 a8.8 8.8 0 1 0 -17.6 0zM264.64 3743.07 a8.8 8.8 0 1 0 17.6 0 a8.8 8.8 0 1 0 -17.6 0zM340.85 -84.93 a8.8 8.8 0 1 0 17.6 0 a8.8 8.8 0 1 0 -17.6 0zM417.06 -40.93 a8.8 8.8 0 1 0 17.6 0 a8.8 8.8 0 1 0 -17.6 0zM417.06 47.07 a8.8 8.8 0 1 0 17.6 0 a8.8 8.8 0 1 0 -17.6 0zM264.64 -40.93 a8.8 8.8 0 1 0 17.6 0 a8.8 8.8 0 1 0 -17.6 0zM340.85 443.07 a8.8 8.8 0 1 0 17.6 0 a8.8 8.8 0 1 0 -17.6 0zM417.06 487.07 a8.8 8.8 0 1 0 17.6 0 a8.8 8.8 0 1 0 -17.6 0zM417.06 575.07 a8.8 8.8 0 1 0 17.6 0 a8.8 8.8 0 1 0 -17.6 0zM493.27 619.07 a8.8 8.8 0 1 0 17.6 0 a8.8 8.8 0 1 0 -17.6 0zM493.27 707.07 a8.8 8.8 0 1 0 17.6 0 a8.8 8.8 0 1 0 -17.6 0zM417.06 751.07 a8.8 8.8 0 1 0 17.6 0 a8.8 8.8 0 1 0 -17.6 0zM417.06 839.07 a8.8 8.8 0 1 0 17.6 0 a8.8 8.8 0 1 0 -17.6 0zM493.27 883.07 a8.8 8.8 0 1 0 17.6 0 a8.8 8.8 0 1 0 -17.6 0zM493.27 971.07 a8.8 8.8 0 1 0 17.6 0 a8.8 8.8 0 1 0 -17.6 0zM417.06 1015.07 a8.8 8.8 0 1 0 17.6 0 a8.8 8.8 0 1 0 -17.6 0zM340.85 971.07 a8.8 8.8 0 1 0 17.6 0 a8.8 8.8 0 1 0 -17.6 0zM340.85 883.07 a8.8 8.8 0 1 0 17.6 0 a8.8 8.8 0 1 0 -17.6 0zM340.85 1235.07 a8.8 8.8 0 1 0 17.6 0 a8.8 8.8 0 1 0 -17.6 0zM417.06 1279.07 a8.8 8.8 0 1 0 17.6 0 a8.8 8.8 0 1 0 -17.6 0zM417.06 1367.07 a8.8 8.8 0 1 0 17.6 0 a8.8 8.8 0 1 0 -17.6 0zM493.27 1411.07 a8.8 8.8 0 1 0 17.6 0 a8.8 8.8 0 1 0 -17.6 0zM493.27 1499.07 a8.8 8.8 0 1 0 17.6 0 a8.8 8.8 0 1 0 -17.6 0zM417.06 1543.07 a8.8 8.8 0 1 0 17.6 0 a8.8 8.8 0 1 0 -17.6 0zM417.06 1807.07 a8.8 8.8 0 1 0 17.6 0 a8.8 8.8 0 1 0 -17.6 0zM417.06 1895.07 a8.8 8.8 0 1 0 17.6 0 a8.8 8.8 0 1 0 -17.6 0zM340.85 1939.07 a8.8 8.8 0 1 0 17.6 0 a8.8 8.8 0 1 0 -17.6 0zM264.64 1895.07 a8.8 8.8 0 1 0 17.6 0 a8.8 8.8 0 1 0 -17.6 0zM493.27 1939.07 a8.8 8.8 0 1 0 17.6 0 a8.8 8.8 0 1 0 -17.6 0zM493.27 2027.07 a8.8 8.8 0 1 0 17.6 0 a8.8 8.8 0 1 0 -17.6 0zM417.06 2071.07 a8.8 8.8 0 1 0 17.6 0 a8.8 8.8 0 1 0 -17.6 0zM340.85 2027.07 a8.8 8.8 0 1 0 17.6 0 a8.8 8.8 0 1 0 -17.6 0zM417.06 2159.07 a8.8 8.8 0 1 0 17.6 0 a8.8 8.8 0 1 0 -17.6 0zM493.27 2203.07 a8.8 8.8 0 1 0 17.6 0 a8.8 8.8 0 1 0 -17.6 0zM493.27 2291.07 a8.8 8.8 0 1 0 17.6 0 a8.8 8.8 0 1 0 -17.6 0zM417.06 2335.07 a8.8 8.8 0 1 0 17.6 0 a8.8 8.8 0 1 0 -17.6 0zM340.85 3875.07 a8.8 8.8 0 1 0 17.6 0 a8.8 8.8 0 1 0 -17.6 0zM417.06 3919.07 a8.8 8.8 0 1 0 17.6 0 a8.8 8.8 0 1 0 -17.6 0zM417.06 4007.07 a8.8 8.8 0 1 0 17.6 0 a8.8 8.8 0 1 0 -17.6 0zM340.85 4051.07 a8.8 8.8 0 1 0 17.6 0 a8.8 8.8 0 1 0 -17.6 0zM264.64 4007.07 a8.8 8.8 0 1 0 17.6 0 a8.8 8.8 0 1 0 -17.6 0zM264.64 3919.07 a8.8 8.8 0 1 0 17.6 0 a8.8 8.8 0 1 0 -17.6 0zM569.49 47.07 a8.8 8.8 0 1 0 17.6 0 a8.8 8.8 0 1 0 -17.6 0zM645.7 91.07 a8.8 8.8 0 1 0 17.6 0 a8.8 8.8 0 1 0 -17.6 0zM645.7 179.07 a8.8 8.8 0 1 0 17.6 0 a8.8 8.8 0 1 0 -17.6 0zM569.49 223.07 a8.8 8.8 0 1 0 17.6 0 a8.8 8.8 0 1 0 -17.6 0zM493.27 179.07 a8.8 8.8 0 1 0 17.6 0 a8.8 8.8 0 1 0 -17.6 0zM493.27 91.07 a8.8 8.8 0 1 0 17.6 0 a8.8 8.8 0 1 0 -17.6 0zM569.49 575.07 a8.8 8.8 0 1 0 17.6 0 a8.8 8.8 0 1 0 -17.6 0zM645.7 619.07 a8.8 8.8 0 1 0 17.6 0 a8.8 8.8 0 1 0 -17.6 0zM645.7 707.07 a8.8 8.8 0 1 0 17.6 0 a8.8 8.8 0 1 0 -17.6 0zM569.49 751.07 a8.8 8.8 0 1 0 17.6 0 a8.8 8.8 0 1 0 -17.6 0zM569.49 839.07 a8.8 8.8 0 1 0 17.6 0 a8.8 8.8 0 1 0 -17.6 0zM645.7 883.07 a8.8 8.8 0 1 0 17.6 0 a8.8 8.8 0 1 0 -17.6 0zM645.7 971.07 a8.8 8.8 0 1 0 17.6 0 a8.8 8.8 0 1 0 -17.6 0zM569.49 1015.07 a8.8 8.8 0 1 0 17.6 0 a8.8 8.8 0 1 0 -17.6 0zM569.49 1103.07 a8.8 8.8 0 1 0 17.6 0 a8.8 8.8 0 1 0 -17.6 0zM493.27 1147.07 a8.8 8.8 0 1 0 17.6 0 a8.8 8.8 0 1 0 -17.6 0zM417.06 1103.07 a8.8 8.8 0 1 0 17.6 0 a8.8 8.8 0 1 0 -17.6 0zM645.7 1147.07 a8.8 8.8 0 1 0 17.6 0 a8.8 8.8 0 1 0 -17.6 0zM645.7 1235.07 a8.8 8.8 0 1 0 17.6 0 a8.8 8.8 0 1 0 -17.6 0zM569.49 1279.07 a8.8 8.8 0 1 0 17.6 0 a8.8 8.8 0 1 0 -17.6 0zM493.27 1235.07 a8.8 8.8 0 1 0 17.6 0 a8.8 8.8 0 1 0 -17.6 0zM569.49 2071.07 a8.8 8.8 0 1 0 17.6 0 a8.8 8.8 0 1 0 -17.6 0zM569.49 2159.07 a8.8 8.8 0 1 0 17.6 0 a8.8 8.8 0 1 0 -17.6 0zM493.27 3083.07 a8.8 8.8 0 1 0 17.6 0 a8.8 8.8 0 1 0 -17.6 0zM569.49 3127.07 a8.8 8.8 0 1 0 17.6 0 a8.8 8.8 0 1 0 -17.6 0zM569.49 3215.07 a8.8 8.8 0 1 0 17.6 0 a8.8 8.8 0 1 0 -17.6 0zM493.27 3259.07 a8.8 8.8 0 1 0 17.6 0 a8.8 8.8 0 1 0 -17.6 0zM417.06 3215.07 a8.8 8.8 0 1 0 17.6 0 a8.8 8.8 0 1 0 -17.6 0zM417.06 3127.07 a8.8 8.8 0 1 0 17.6 0 a8.8 8.8 0 1 0 -17.6 0zM645.7 3259.07 a8.8 8.8 0 1 0 17.6 0 a8.8 8.8 0 1 0 -17.6 0zM645.7 3347.07 a8.8 8.8 0 1 0 17.6 0 a8.8 8.8 0 1 0 -17.6 0zM569.49 3391.07 a8.8 8.8 0 1 0 17.6 0 a8.8 8.8 0 1 0 -17.6 0zM493.27 3347.07 a8.8 8.8 0 1 0 17.6 0 a8.8 8.8 0 1 0 -17.6 0zM569.49 3479.07 a8.8 8.8 0 1 0 17.6 0 a8.8 8.8 0 1 0 -17.6 0zM645.7 3523.07 a8.8 8.8 0 1 0 17.6 0 a8.8 8.8 0 1 0 -17.6 0zM645.7 3611.07 a8.8 8.8 0 1 0 17.6 0 a8.8 8.8 0 1 0 -17.6 0zM569.49 3655.07 a8.8 8.8 0 1 0 17.6 0 a8.8 8.8 0 1 0 -17.6 0zM493.27 3611.07 a8.8 8.8 0 1 0 17.6 0 a8.8 8.8 0 1 0 -17.6 0zM493.27 3523.07 a8.8 8.8 0 1 0 17.6 0 a8.8 8.8 0 1 0 -17.6 0zM569.49 3743.07 a8.8 8.8 0 1 0 17.6 0 a8.8 8.8 0 1 0 -17.6 0zM493.27 3787.07 a8.8 8.8 0 1 0 17.6 0 a8.8 8.8 0 1 0 -17.6 0zM417.06 3743.07 a8.8 8.8 0 1 0 17.6 0 a8.8 8.8 0 1 0 -17.6 0zM417.06 3655.07 a8.8 8.8 0 1 0 17.6 0 a8.8 8.8 0 1 0 -17.6 0zM645.7 -84.93 a8.8 8.8 0 1 0 17.6 0 a8.8 8.8 0 1 0 -17.6 0zM721.91 -40.93 a8.8 8.8 0 1 0 17.6 0 a8.8 8.8 0 1 0 -17.6 0zM721.91 47.07 a8.8 8.8 0 1 0 17.6 0 a8.8 8.8 0 1 0 -17.6 0zM569.49 -40.93 a8.8 8.8 0 1 0 17.6 0 a8.8 8.8 0 1 0 -17.6 0zM798.12 91.07 a8.8 8.8 0 1 0 17.6 0 a8.8 8.8 0 1 0 -17.6 0zM798.12 179.07 a8.8 8.8 0 1 0 17.6 0 a8.8 8.8 0 1 0 -17.6 0zM721.91 223.07 a8.8 8.8 0 1 0 17.6 0 a8.8 8.8 0 1 0 -17.6 0zM721.91 751.07 a8.8 8.8 0 1 0 17.6 0 a8.8 8.8 0 1 0 -17.6 0zM721.91 839.07 a8.8 8.8 0 1 0 17.6 0 a8.8 8.8 0 1 0 -17.6 0zM798.12 883.07 a8.8 8.8 0 1 0 17.6 0 a8.8 8.8 0 1 0 -17.6 0zM798.12 971.07 a8.8 8.8 0 1 0 17.6 0 a8.8 8.8 0 1 0 -17.6 0zM721.91 1015.07 a8.8 8.8 0 1 0 17.6 0 a8.8 8.8 0 1 0 -17.6 0zM721.91 1367.07 a8.8 8.8 0 1 0 17.6 0 a8.8 8.8 0 1 0 -17.6 0zM798.12 1411.07 a8.8 8.8 0 1 0 17.6 0 a8.8 8.8 0 1 0 -17.6 0zM798.12 1499.07 a8.8 8.8 0 1 0 17.6 0 a8.8 8.8 0 1 0 -17.6 0zM721.91 1543.07 a8.8 8.8 0 1 0 17.6 0 a8.8 8.8 0 1 0 -17.6 0zM645.7 1499.07 a8.8 8.8 0 1 0 17.6 0 a8.8 8.8 0 1 0 -17.6 0zM645.7 1411.07 a8.8 8.8 0 1 0 17.6 0 a8.8 8.8 0 1 0 -17.6 0zM721.91 1631.07 a8.8 8.8 0 1 0 17.6 0 a8.8 8.8 0 1 0 -17.6 0zM645.7 1675.07 a8.8 8.8 0 1 0 17.6 0 a8.8 8.8 0 1 0 -17.6 0zM569.49 1631.07 a8.8 8.8 0 1 0 17.6 0 a8.8 8.8 0 1 0 -17.6 0zM569.49 1543.07 a8.8 8.8 0 1 0 17.6 0 a8.8 8.8 0 1 0 -17.6 0zM645.7 2291.07 a8.8 8.8 0 1 0 17.6 0 a8.8 8.8 0 1 0 -17.6 0zM721.91 2335.07 a8.8 8.8 0 1 0 17.6 0 a8.8 8.8 0 1 0 -17.6 0zM721.91 2423.07 a8.8 8.8 0 1 0 17.6 0 a8.8 8.8 0 1 0 -17.6 0zM645.7 2467.07 a8.8 8.8 0 1 0 17.6 0 a8.8 8.8 0 1 0 -17.6 0zM569.49 2423.07 a8.8 8.8 0 1 0 17.6 0 a8.8 8.8 0 1 0 -17.6 0zM569.49 2335.07 a8.8 8.8 0 1 0 17.6 0 a8.8 8.8 0 1 0 -17.6 0zM645.7 2555.07 a8.8 8.8 0 1 0 17.6 0 a8.8 8.8 0 1 0 -17.6 0zM721.91 2599.07 a8.8 8.8 0 1 0 17.6 0 a8.8 8.8 0 1 0 -17.6 0zM721.91 2687.07 a8.8 8.8 0 1 0 17.6 0 a8.8 8.8 0 1 0 -17.6 0zM645.7 2731.07 a8.8 8.8 0 1 0 17.6 0 a8.8 8.8 0 1 0 -17.6 0zM569.49 2687.07 a8.8 8.8 0 1 0 17.6 0 a8.8 8.8 0 1 0 -17.6 0zM569.49 2599.07 a8.8 8.8 0 1 0 17.6 0 a8.8 8.8 0 1 0 -17.6 0zM645.7 2819.07 a8.8 8.8 0 1 0 17.6 0 a8.8 8.8 0 1 0 -17.6 0zM721.91 2863.07 a8.8 8.8 0 1 0 17.6 0 a8.8 8.8 0 1 0 -17.6 0zM721.91 2951.07 a8.8 8.8 0 1 0 17.6 0 a8.8 8.8 0 1 0 -17.6 0zM645.7 2995.07 a8.8 8.8 0 1 0 17.6 0 a8.8 8.8 0 1 0 -17.6 0zM569.49 2951.07 a8.8 8.8 0 1 0 17.6 0 a8.8 8.8 0 1 0 -17.6 0zM569.49 2863.07 a8.8 8.8 0 1 0 17.6 0 a8.8 8.8 0 1 0 -17.6 0zM798.12 2995.07 a8.8 8.8 0 1 0 17.6 0 a8.8 8.8 0 1 0 -17.6 0zM798.12 3083.07 a8.8 8.8 0 1 0 17.6 0 a8.8 8.8 0 1 0 -17.6 0zM721.91 3127.07 a8.8 8.8 0 1 0 17.6 0 a8.8 8.8 0 1 0 -17.6 0zM645.7 3083.07 a8.8 8.8 0 1 0 17.6 0 a8.8 8.8 0 1 0 -17.6 0zM721.91 3655.07 a8.8 8.8 0 1 0 17.6 0 a8.8 8.8 0 1 0 -17.6 0zM721.91 3743.07 a8.8 8.8 0 1 0 17.6 0 a8.8 8.8 0 1 0 -17.6 0zM645.7 3787.07 a8.8 8.8 0 1 0 17.6 0 a8.8 8.8 0 1 0 -17.6 0zM645.7 3875.07 a8.8 8.8 0 1 0 17.6 0 a8.8 8.8 0 1 0 -17.6 0zM721.91 3919.07 a8.8 8.8 0 1 0 17.6 0 a8.8 8.8 0 1 0 -17.6 0zM721.91 4007.07 a8.8 8.8 0 1 0 17.6 0 a8.8 8.8 0 1 0 -17.6 0zM645.7 4051.07 a8.8 8.8 0 1 0 17.6 0 a8.8 8.8 0 1 0 -17.6 0zM569.49 4007.07 a8.8 8.8 0 1 0 17.6 0 a8.8 8.8 0 1 0 -17.6 0zM569.49 3919.07 a8.8 8.8 0 1 0 17.6 0 a8.8 8.8 0 1 0 -17.6 0zM798.12 -84.93 a8.8 8.8 0 1 0 17.6 0 a8.8 8.8 0 1 0 -17.6 0zM874.34 -40.93 a8.8 8.8 0 1 0 17.6 0 a8.8 8.8 0 1 0 -17.6 0zM874.34 47.07 a8.8 8.8 0 1 0 17.6 0 a8.8 8.8 0 1 0 -17.6 0zM874.34 223.07 a8.8 8.8 0 1 0 17.6 0 a8.8 8.8 0 1 0 -17.6 0zM874.34 311.07 a8.8 8.8 0 1 0 17.6 0 a8.8 8.8 0 1 0 -17.6 0zM798.12 355.07 a8.8 8.8 0 1 0 17.6 0 a8.8 8.8 0 1 0 -17.6 0zM721.91 311.07 a8.8 8.8 0 1 0 17.6 0 a8.8 8.8 0 1 0 -17.6 0zM798.12 443.07 a8.8 8.8 0 1 0 17.6 0 a8.8 8.8 0 1 0 -17.6 0zM874.34 487.07 a8.8 8.8 0 1 0 17.6 0 a8.8 8.8 0 1 0 -17.6 0zM874.34 575.07 a8.8 8.8 0 1 0 17.6 0 a8.8 8.8 0 1 0 -17.6 0zM798.12 619.07 a8.8 8.8 0 1 0 17.6 0 a8.8 8.8 0 1 0 -17.6 0zM721.91 575.07 a8.8 8.8 0 1 0 17.6 0 a8.8 8.8 0 1 0 -17.6 0zM721.91 487.07 a8.8 8.8 0 1 0 17.6 0 a8.8 8.8 0 1 0 -17.6 0zM950.55 619.07 a8.8 8.8 0 1 0 17.6 0 a8.8 8.8 0 1 0 -17.6 0zM950.55 707.07 a8.8 8.8 0 1 0 17.6 0 a8.8 8.8 0 1 0 -17.6 0zM874.34 751.07 a8.8 8.8 0 1 0 17.6 0 a8.8 8.8 0 1 0 -17.6 0zM798.12 707.07 a8.8 8.8 0 1 0 17.6 0 a8.8 8.8 0 1 0 -17.6 0zM874.34 839.07 a8.8 8.8 0 1 0 17.6 0 a8.8 8.8 0 1 0 -17.6 0zM950.55 883.07 a8.8 8.8 0 1 0 17.6 0 a8.8 8.8 0 1 0 -17.6 0zM950.55 971.07 a8.8 8.8 0 1 0 17.6 0 a8.8 8.8 0 1 0 -17.6 0zM874.34 1015.07 a8.8 8.8 0 1 0 17.6 0 a8.8 8.8 0 1 0 -17.6 0zM874.34 1103.07 a8.8 8.8 0 1 0 17.6 0 a8.8 8.8 0 1 0 -17.6 0zM798.12 1147.07 a8.8 8.8 0 1 0 17.6 0 a8.8 8.8 0 1 0 -17.6 0zM721.91 1103.07 a8.8 8.8 0 1 0 17.6 0 a8.8 8.8 0 1 0 -17.6 0zM874.34 1367.07 a8.8 8.8 0 1 0 17.6 0 a8.8 8.8 0 1 0 -17.6 0zM950.55 1411.07 a8.8 8.8 0 1 0 17.6 0 a8.8 8.8 0 1 0 -17.6 0zM950.55 1499.07 a8.8 8.8 0 1 0 17.6 0 a8.8 8.8 0 1 0 -17.6 0zM874.34 1543.07 a8.8 8.8 0 1 0 17.6 0 a8.8 8.8 0 1 0 -17.6 0zM874.34 1631.07 a8.8 8.8 0 1 0 17.6 0 a8.8 8.8 0 1 0 -17.6 0zM798.12 1675.07 a8.8 8.8 0 1 0 17.6 0 a8.8 8.8 0 1 0 -17.6 0zM950.55 1675.07 a8.8 8.8 0 1 0 17.6 0 a8.8 8.8 0 1 0 -17.6 0zM950.55 1763.07 a8.8 8.8 0 1 0 17.6 0 a8.8 8.8 0 1 0 -17.6 0zM874.34 1807.07 a8.8 8.8 0 1 0 17.6 0 a8.8 8.8 0 1 0 -17.6 0zM798.12 1763.07 a8.8 8.8 0 1 0 17.6 0 a8.8 8.8 0 1 0 -17.6 0zM874.34 1895.07 a8.8 8.8 0 1 0 17.6 0 a8.8 8.8 0 1 0 -17.6 0zM950.55 1939.07 a8.8 8.8 0 1 0 17.6 0 a8.8 8.8 0 1 0 -17.6 0zM950.55 2027.07 a8.8 8.8 0 1 0 17.6 0 a8.8 8.8 0 1 0 -17.6 0zM874.34 2071.07 a8.8 8.8 0 1 0 17.6 0 a8.8 8.8 0 1 0 -17.6 0zM798.12 2027.07 a8.8 8.8 0 1 0 17.6 0 a8.8 8.8 0 1 0 -17.6 0zM798.12 1939.07 a8.8 8.8 0 1 0 17.6 0 a8.8 8.8 0 1 0 -17.6 0zM874.34 2159.07 a8.8 8.8 0 1 0 17.6 0 a8.8 8.8 0 1 0 -17.6 0zM950.55 2203.07 a8.8 8.8 0 1 0 17.6 0 a8.8 8.8 0 1 0 -17.6 0zM950.55 2291.07 a8.8 8.8 0 1 0 17.6 0 a8.8 8.8 0 1 0 -17.6 0zM874.34 2335.07 a8.8 8.8 0 1 0 17.6 0 a8.8 8.8 0 1 0 -17.6 0zM798.12 2291.07 a8.8 8.8 0 1 0 17.6 0 a8.8 8.8 0 1 0 -17.6 0zM798.12 2203.07 a8.8 8.8 0 1 0 17.6 0 a8.8 8.8 0 1 0 -17.6 0zM798.12 2555.07 a8.8 8.8 0 1 0 17.6 0 a8.8 8.8 0 1 0 -17.6 0zM874.34 2599.07 a8.8 8.8 0 1 0 17.6 0 a8.8 8.8 0 1 0 -17.6 0zM874.34 2687.07 a8.8 8.8 0 1 0 17.6 0 a8.8 8.8 0 1 0 -17.6 0zM798.12 2731.07 a8.8 8.8 0 1 0 17.6 0 a8.8 8.8 0 1 0 -17.6 0zM798.12 2819.07 a8.8 8.8 0 1 0 17.6 0 a8.8 8.8 0 1 0 -17.6 0zM874.34 2863.07 a8.8 8.8 0 1 0 17.6 0 a8.8 8.8 0 1 0 -17.6 0zM874.34 2951.07 a8.8 8.8 0 1 0 17.6 0 a8.8 8.8 0 1 0 -17.6 0zM950.55 2995.07 a8.8 8.8 0 1 0 17.6 0 a8.8 8.8 0 1 0 -17.6 0zM950.55 3083.07 a8.8 8.8 0 1 0 17.6 0 a8.8 8.8 0 1 0 -17.6 0zM874.34 3127.07 a8.8 8.8 0 1 0 17.6 0 a8.8 8.8 0 1 0 -17.6 0zM798.12 3347.07 a8.8 8.8 0 1 0 17.6 0 a8.8 8.8 0 1 0 -17.6 0zM874.34 3391.07 a8.8 8.8 0 1 0 17.6 0 a8.8 8.8 0 1 0 -17.6 0zM874.34 3479.07 a8.8 8.8 0 1 0 17.6 0 a8.8 8.8 0 1 0 -17.6 0zM798.12 3523.07 a8.8 8.8 0 1 0 17.6 0 a8.8 8.8 0 1 0 -17.6 0zM721.91 3479.07 a8.8 8.8 0 1 0 17.6 0 a8.8 8.8 0 1 0 -17.6 0zM721.91 3391.07 a8.8 8.8 0 1 0 17.6 0 a8.8 8.8 0 1 0 -17.6 0zM950.55 3523.07 a8.8 8.8 0 1 0 17.6 0 a8.8 8.8 0 1 0 -17.6 0zM950.55 3611.07 a8.8 8.8 0 1 0 17.6 0 a8.8 8.8 0 1 0 -17.6 0zM874.34 3655.07 a8.8 8.8 0 1 0 17.6 0 a8.8 8.8 0 1 0 -17.6 0zM798.12 3611.07 a8.8 8.8 0 1 0 17.6 0 a8.8 8.8 0 1 0 -17.6 0zM874.34 3743.07 a8.8 8.8 0 1 0 17.6 0 a8.8 8.8 0 1 0 -17.6 0zM950.55 3787.07 a8.8 8.8 0 1 0 17.6 0 a8.8 8.8 0 1 0 -17.6 0zM950.55 3875.07 a8.8 8.8 0 1 0 17.6 0 a8.8 8.8 0 1 0 -17.6 0zM874.34 3919.07 a8.8 8.8 0 1 0 17.6 0 a8.8 8.8 0 1 0 -17.6 0zM798.12 3875.07 a8.8 8.8 0 1 0 17.6 0 a8.8 8.8 0 1 0 -17.6 0zM798.12 3787.07 a8.8 8.8 0 1 0 17.6 0 a8.8 8.8 0 1 0 -17.6 0zM874.34 4007.07 a8.8 8.8 0 1 0 17.6 0 a8.8 8.8 0 1 0 -17.6 0zM798.12 4051.07 a8.8 8.8 0 1 0 17.6 0 a8.8 8.8 0 1 0 -17.6 0zM950.55 -84.93 a8.8 8.8 0 1 0 17.6 0 a8.8 8.8 0 1 0 -17.6 0zM1026.76 -40.93 a8.8 8.8 0 1 0 17.6 0 a8.8 8.8 0 1 0 -17.6 0zM1026.76 47.07 a8.8 8.8 0 1 0 17.6 0 a8.8 8.8 0 1 0 -17.6 0zM950.55 91.07 a8.8 8.8 0 1 0 17.6 0 a8.8 8.8 0 1 0 -17.6 0zM1102.97 91.07 a8.8 8.8 0 1 0 17.6 0 a8.8 8.8 0 1 0 -17.6 0zM1102.97 179.07 a8.8 8.8 0 1 0 17.6 0 a8.8 8.8 0 1 0 -17.6 0zM1026.76 223.07 a8.8 8.8 0 1 0 17.6 0 a8.8 8.8 0 1 0 -17.6 0zM950.55 179.07 a8.8 8.8 0 1 0 17.6 0 a8.8 8.8 0 1 0 -17.6 0zM1026.76 751.07 a8.8 8.8 0 1 0 17.6 0 a8.8 8.8 0 1 0 -17.6 0zM1026.76 839.07 a8.8 8.8 0 1 0 17.6 0 a8.8 8.8 0 1 0 -17.6 0zM950.55 1235.07 a8.8 8.8 0 1 0 17.6 0 a8.8 8.8 0 1 0 -17.6 0zM1026.76 1279.07 a8.8 8.8 0 1 0 17.6 0 a8.8 8.8 0 1 0 -17.6 0zM1026.76 1367.07 a8.8 8.8 0 1 0 17.6 0 a8.8 8.8 0 1 0 -17.6 0zM874.34 1279.07 a8.8 8.8 0 1 0 17.6 0 a8.8 8.8 0 1 0 -17.6 0zM1102.97 1411.07 a8.8 8.8 0 1 0 17.6 0 a8.8 8.8 0 1 0 -17.6 0zM1102.97 1499.07 a8.8 8.8 0 1 0 17.6 0 a8.8 8.8 0 1 0 -17.6 0zM1026.76 1543.07 a8.8 8.8 0 1 0 17.6 0 a8.8 8.8 0 1 0 -17.6 0zM1026.76 1631.07 a8.8 8.8 0 1 0 17.6 0 a8.8 8.8 0 1 0 -17.6 0zM1026.76 1895.07 a8.8 8.8 0 1 0 17.6 0 a8.8 8.8 0 1 0 -17.6 0zM1102.97 1939.07 a8.8 8.8 0 1 0 17.6 0 a8.8 8.8 0 1 0 -17.6 0zM1102.97 2027.07 a8.8 8.8 0 1 0 17.6 0 a8.8 8.8 0 1 0 -17.6 0zM1026.76 2071.07 a8.8 8.8 0 1 0 17.6 0 a8.8 8.8 0 1 0 -17.6 0zM1026.76 2159.07 a8.8 8.8 0 1 0 17.6 0 a8.8 8.8 0 1 0 -17.6 0zM1026.76 2335.07 a8.8 8.8 0 1 0 17.6 0 a8.8 8.8 0 1 0 -17.6 0zM1026.76 2423.07 a8.8 8.8 0 1 0 17.6 0 a8.8 8.8 0 1 0 -17.6 0zM950.55 2467.07 a8.8 8.8 0 1 0 17.6 0 a8.8 8.8 0 1 0 -17.6 0zM874.34 2423.07 a8.8 8.8 0 1 0 17.6 0 a8.8 8.8 0 1 0 -17.6 0zM1102.97 2467.07 a8.8 8.8 0 1 0 17.6 0 a8.8 8.8 0 1 0 -17.6 0zM1102.97 2555.07 a8.8 8.8 0 1 0 17.6 0 a8.8 8.8 0 1 0 -17.6 0zM1026.76 2599.07 a8.8 8.8 0 1 0 17.6 0 a8.8 8.8 0 1 0 -17.6 0zM950.55 2555.07 a8.8 8.8 0 1 0 17.6 0 a8.8 8.8 0 1 0 -17.6 0zM1026.76 2687.07 a8.8 8.8 0 1 0 17.6 0 a8.8 8.8 0 1 0 -17.6 0zM1102.97 2731.07 a8.8 8.8 0 1 0 17.6 0 a8.8 8.8 0 1 0 -17.6 0zM1102.97 2819.07 a8.8 8.8 0 1 0 17.6 0 a8.8 8.8 0 1 0 -17.6 0zM1026.76 2863.07 a8.8 8.8 0 1 0 17.6 0 a8.8 8.8 0 1 0 -17.6 0zM950.55 2819.07 a8.8 8.8 0 1 0 17.6 0 a8.8 8.8 0 1 0 -17.6 0zM950.55 2731.07 a8.8 8.8 0 1 0 17.6 0 a8.8 8.8 0 1 0 -17.6 0zM1026.76 2951.07 a8.8 8.8 0 1 0 17.6 0 a8.8 8.8 0 1 0 -17.6 0zM1102.97 2995.07 a8.8 8.8 0 1 0 17.6 0 a8.8 8.8 0 1 0 -17.6 0zM1102.97 3083.07 a8.8 8.8 0 1 0 17.6 0 a8.8 8.8 0 1 0 -17.6 0zM1026.76 3127.07 a8.8 8.8 0 1 0 17.6 0 a8.8 8.8 0 1 0 -17.6 0zM1026.76 3215.07 a8.8 8.8 0 1 0 17.6 0 a8.8 8.8 0 1 0 -17.6 0zM1102.97 3259.07 a8.8 8.8 0 1 0 17.6 0 a8.8 8.8 0 1 0 -17.6 0zM1102.97 3347.07 a8.8 8.8 0 1 0 17.6 0 a8.8 8.8 0 1 0 -17.6 0zM1026.76 3391.07 a8.8 8.8 0 1 0 17.6 0 a8.8 8.8 0 1 0 -17.6 0zM950.55 3347.07 a8.8 8.8 0 1 0 17.6 0 a8.8 8.8 0 1 0 -17.6 0zM950.55 3259.07 a8.8 8.8 0 1 0 17.6 0 a8.8 8.8 0 1 0 -17.6 0zM1026.76 3655.07 a8.8 8.8 0 1 0 17.6 0 a8.8 8.8 0 1 0 -17.6 0zM1026.76 3743.07 a8.8 8.8 0 1 0 17.6 0 a8.8 8.8 0 1 0 -17.6 0zM1102.97 3787.07 a8.8 8.8 0 1 0 17.6 0 a8.8 8.8 0 1 0 -17.6 0zM1102.97 3875.07 a8.8 8.8 0 1 0 17.6 0 a8.8 8.8 0 1 0 -17.6 0zM1026.76 3919.07 a8.8 8.8 0 1 0 17.6 0 a8.8 8.8 0 1 0 -17.6 0zM1102.97 -84.93 a8.8 8.8 0 1 0 17.6 0 a8.8 8.8 0 1 0 -17.6 0zM1179.19 -40.93 a8.8 8.8 0 1 0 17.6 0 a8.8 8.8 0 1 0 -17.6 0zM1179.19 47.07 a8.8 8.8 0 1 0 17.6 0 a8.8 8.8 0 1 0 -17.6 0zM1102.97 443.07 a8.8 8.8 0 1 0 17.6 0 a8.8 8.8 0 1 0 -17.6 0zM1179.19 487.07 a8.8 8.8 0 1 0 17.6 0 a8.8 8.8 0 1 0 -17.6 0zM1179.19 575.07 a8.8 8.8 0 1 0 17.6 0 a8.8 8.8 0 1 0 -17.6 0zM1102.97 619.07 a8.8 8.8 0 1 0 17.6 0 a8.8 8.8 0 1 0 -17.6 0zM1026.76 575.07 a8.8 8.8 0 1 0 17.6 0 a8.8 8.8 0 1 0 -17.6 0zM1026.76 487.07 a8.8 8.8 0 1 0 17.6 0 a8.8 8.8 0 1 0 -17.6 0zM1102.97 707.07 a8.8 8.8 0 1 0 17.6 0 a8.8 8.8 0 1 0 -17.6 0zM1179.19 751.07 a8.8 8.8 0 1 0 17.6 0 a8.8 8.8 0 1 0 -17.6 0zM1179.19 839.07 a8.8 8.8 0 1 0 17.6 0 a8.8 8.8 0 1 0 -17.6 0zM1102.97 883.07 a8.8 8.8 0 1 0 17.6 0 a8.8 8.8 0 1 0 -17.6 0zM1255.4 883.07 a8.8 8.8 0 1 0 17.6 0 a8.8 8.8 0 1 0 -17.6 0zM1255.4 971.07 a8.8 8.8 0 1 0 17.6 0 a8.8 8.8 0 1 0 -17.6 0zM1179.19 1015.07 a8.8 8.8 0 1 0 17.6 0 a8.8 8.8 0 1 0 -17.6 0zM1102.97 971.07 a8.8 8.8 0 1 0 17.6 0 a8.8 8.8 0 1 0 -17.6 0zM1179.19 1103.07 a8.8 8.8 0 1 0 17.6 0 a8.8 8.8 0 1 0 -17.6 0zM1255.4 1147.07 a8.8 8.8 0 1 0 17.6 0 a8.8 8.8 0 1 0 -17.6 0zM1255.4 1235.07 a8.8 8.8 0 1 0 17.6 0 a8.8 8.8 0 1 0 -17.6 0zM1179.19 1279.07 a8.8 8.8 0 1 0 17.6 0 a8.8 8.8 0 1 0 -17.6 0zM1102.97 1235.07 a8.8 8.8 0 1 0 17.6 0 a8.8 8.8 0 1 0 -17.6 0zM1102.97 1147.07 a8.8 8.8 0 1 0 17.6 0 a8.8 8.8 0 1 0 -17.6 0zM1179.19 1367.07 a8.8 8.8 0 1 0 17.6 0 a8.8 8.8 0 1 0 -17.6 0zM1255.4 1411.07 a8.8 8.8 0 1 0 17.6 0 a8.8 8.8 0 1 0 -17.6 0zM1255.4 1499.07 a8.8 8.8 0 1 0 17.6 0 a8.8 8.8 0 1 0 -17.6 0zM1179.19 1543.07 a8.8 8.8 0 1 0 17.6 0 a8.8 8.8 0 1 0 -17.6 0zM1179.19 1631.07 a8.8 8.8 0 1 0 17.6 0 a8.8 8.8 0 1 0 -17.6 0zM1255.4 1675.07 a8.8 8.8 0 1 0 17.6 0 a8.8 8.8 0 1 0 -17.6 0zM1255.4 1763.07 a8.8 8.8 0 1 0 17.6 0 a8.8 8.8 0 1 0 -17.6 0zM1179.19 1807.07 a8.8 8.8 0 1 0 17.6 0 a8.8 8.8 0 1 0 -17.6 0zM1102.97 1763.07 a8.8 8.8 0 1 0 17.6 0 a8.8 8.8 0 1 0 -17.6 0zM1102.97 1675.07 a8.8 8.8 0 1 0 17.6 0 a8.8 8.8 0 1 0 -17.6 0zM1179.19 2071.07 a8.8 8.8 0 1 0 17.6 0 a8.8 8.8 0 1 0 -17.6 0zM1179.19 2159.07 a8.8 8.8 0 1 0 17.6 0 a8.8 8.8 0 1 0 -17.6 0zM1102.97 2203.07 a8.8 8.8 0 1 0 17.6 0 a8.8 8.8 0 1 0 -17.6 0zM1255.4 2203.07 a8.8 8.8 0 1 0 17.6 0 a8.8 8.8 0 1 0 -17.6 0zM1255.4 2291.07 a8.8 8.8 0 1 0 17.6 0 a8.8 8.8 0 1 0 -17.6 0zM1179.19 2335.07 a8.8 8.8 0 1 0 17.6 0 a8.8 8.8 0 1 0 -17.6 0zM1102.97 2291.07 a8.8 8.8 0 1 0 17.6 0 a8.8 8.8 0 1 0 -17.6 0zM1179.19 2423.07 a8.8 8.8 0 1 0 17.6 0 a8.8 8.8 0 1 0 -17.6 0zM1255.4 2467.07 a8.8 8.8 0 1 0 17.6 0 a8.8 8.8 0 1 0 -17.6 0zM1255.4 2555.07 a8.8 8.8 0 1 0 17.6 0 a8.8 8.8 0 1 0 -17.6 0zM1179.19 2599.07 a8.8 8.8 0 1 0 17.6 0 a8.8 8.8 0 1 0 -17.6 0zM1179.19 2687.07 a8.8 8.8 0 1 0 17.6 0 a8.8 8.8 0 1 0 -17.6 0zM1255.4 2731.07 a8.8 8.8 0 1 0 17.6 0 a8.8 8.8 0 1 0 -17.6 0zM1255.4 2819.07 a8.8 8.8 0 1 0 17.6 0 a8.8 8.8 0 1 0 -17.6 0zM1179.19 2863.07 a8.8 8.8 0 1 0 17.6 0 a8.8 8.8 0 1 0 -17.6 0zM1179.19 2951.07 a8.8 8.8 0 1 0 17.6 0 a8.8 8.8 0 1 0 -17.6 0zM1255.4 2995.07 a8.8 8.8 0 1 0 17.6 0 a8.8 8.8 0 1 0 -17.6 0zM1255.4 3083.07 a8.8 8.8 0 1 0 17.6 0 a8.8 8.8 0 1 0 -17.6 0zM1179.19 3127.07 a8.8 8.8 0 1 0 17.6 0 a8.8 8.8 0 1 0 -17.6 0zM1179.19 3215.07 a8.8 8.8 0 1 0 17.6 0 a8.8 8.8 0 1 0 -17.6 0zM1179.19 3479.07 a8.8 8.8 0 1 0 17.6 0 a8.8 8.8 0 1 0 -17.6 0zM1255.4 3523.07 a8.8 8.8 0 1 0 17.6 0 a8.8 8.8 0 1 0 -17.6 0zM1255.4 3611.07 a8.8 8.8 0 1 0 17.6 0 a8.8 8.8 0 1 0 -17.6 0zM1179.19 3655.07 a8.8 8.8 0 1 0 17.6 0 a8.8 8.8 0 1 0 -17.6 0zM1102.97 3611.07 a8.8 8.8 0 1 0 17.6 0 a8.8 8.8 0 1 0 -17.6 0zM1102.97 3523.07 a8.8 8.8 0 1 0 17.6 0 a8.8 8.8 0 1 0 -17.6 0zM1179.19 3743.07 a8.8 8.8 0 1 0 17.6 0 a8.8 8.8 0 1 0 -17.6 0zM1255.4 -84.93 a8.8 8.8 0 1 0 17.6 0 a8.8 8.8 0 1 0 -17.6 0zM1331.61 -40.93 a8.8 8.8 0 1 0 17.6 0 a8.8 8.8 0 1 0 -17.6 0zM1331.61 47.07 a8.8 8.8 0 1 0 17.6 0 a8.8 8.8 0 1 0 -17.6 0zM1255.4 91.07 a8.8 8.8 0 1 0 17.6 0 a8.8 8.8 0 1 0 -17.6 0zM1331.61 575.07 a8.8 8.8 0 1 0 17.6 0 a8.8 8.8 0 1 0 -17.6 0zM1407.82 619.07 a8.8 8.8 0 1 0 17.6 0 a8.8 8.8 0 1 0 -17.6 0zM1407.82 707.07 a8.8 8.8 0 1 0 17.6 0 a8.8 8.8 0 1 0 -17.6 0zM1331.61 751.07 a8.8 8.8 0 1 0 17.6 0 a8.8 8.8 0 1 0 -17.6 0zM1255.4 707.07 a8.8 8.8 0 1 0 17.6 0 a8.8 8.8 0 1 0 -17.6 0zM1255.4 619.07 a8.8 8.8 0 1 0 17.6 0 a8.8 8.8 0 1 0 -17.6 0zM1331.61 1103.07 a8.8 8.8 0 1 0 17.6 0 a8.8 8.8 0 1 0 -17.6 0zM1407.82 1147.07 a8.8 8.8 0 1 0 17.6 0 a8.8 8.8 0 1 0 -17.6 0zM1407.82 1235.07 a8.8 8.8 0 1 0 17.6 0 a8.8 8.8 0 1 0 -17.6 0zM1331.61 1279.07 a8.8 8.8 0 1 0 17.6 0 a8.8 8.8 0 1 0 -17.6 0zM1331.61 1543.07 a8.8 8.8 0 1 0 17.6 0 a8.8 8.8 0 1 0 -17.6 0zM1331.61 1631.07 a8.8 8.8 0 1 0 17.6 0 a8.8 8.8 0 1 0 -17.6 0zM1331.61 1807.07 a8.8 8.8 0 1 0 17.6 0 a8.8 8.8 0 1 0 -17.6 0zM1331.61 1895.07 a8.8 8.8 0 1 0 17.6 0 a8.8 8.8 0 1 0 -17.6 0zM1255.4 1939.07 a8.8 8.8 0 1 0 17.6 0 a8.8 8.8 0 1 0 -17.6 0zM1179.19 1895.07 a8.8 8.8 0 1 0 17.6 0 a8.8 8.8 0 1 0 -17.6 0zM1407.82 1939.07 a8.8 8.8 0 1 0 17.6 0 a8.8 8.8 0 1 0 -17.6 0zM1407.82 2027.07 a8.8 8.8 0 1 0 17.6 0 a8.8 8.8 0 1 0 -17.6 0zM1331.61 2071.07 a8.8 8.8 0 1 0 17.6 0 a8.8 8.8 0 1 0 -17.6 0zM1255.4 2027.07 a8.8 8.8 0 1 0 17.6 0 a8.8 8.8 0 1 0 -17.6 0zM1331.61 2159.07 a8.8 8.8 0 1 0 17.6 0 a8.8 8.8 0 1 0 -17.6 0zM1407.82 2203.07 a8.8 8.8 0 1 0 17.6 0 a8.8 8.8 0 1 0 -17.6 0zM1407.82 2291.07 a8.8 8.8 0 1 0 17.6 0 a8.8 8.8 0 1 0 -17.6 0zM1331.61 2335.07 a8.8 8.8 0 1 0 17.6 0 a8.8 8.8 0 1 0 -17.6 0zM1331.61 2423.07 a8.8 8.8 0 1 0 17.6 0 a8.8 8.8 0 1 0 -17.6 0zM1407.82 2467.07 a8.8 8.8 0 1 0 17.6 0 a8.8 8.8 0 1 0 -17.6 0zM1407.82 2555.07 a8.8 8.8 0 1 0 17.6 0 a8.8 8.8 0 1 0 -17.6 0zM1331.61 2599.07 a8.8 8.8 0 1 0 17.6 0 a8.8 8.8 0 1 0 -17.6 0zM1331.61 2687.07 a8.8 8.8 0 1 0 17.6 0 a8.8 8.8 0 1 0 -17.6 0zM1331.61 2863.07 a8.8 8.8 0 1 0 17.6 0 a8.8 8.8 0 1 0 -17.6 0zM1331.61 2951.07 a8.8 8.8 0 1 0 17.6 0 a8.8 8.8 0 1 0 -17.6 0zM1331.61 3215.07 a8.8 8.8 0 1 0 17.6 0 a8.8 8.8 0 1 0 -17.6 0zM1407.82 3259.07 a8.8 8.8 0 1 0 17.6 0 a8.8 8.8 0 1 0 -17.6 0zM1407.82 3347.07 a8.8 8.8 0 1 0 17.6 0 a8.8 8.8 0 1 0 -17.6 0zM1331.61 3391.07 a8.8 8.8 0 1 0 17.6 0 a8.8 8.8 0 1 0 -17.6 0zM1255.4 3347.07 a8.8 8.8 0 1 0 17.6 0 a8.8 8.8 0 1 0 -17.6 0zM1255.4 3259.07 a8.8 8.8 0 1 0 17.6 0 a8.8 8.8 0 1 0 -17.6 0zM1331.61 3743.07 a8.8 8.8 0 1 0 17.6 0 a8.8 8.8 0 1 0 -17.6 0zM1407.82 3787.07 a8.8 8.8 0 1 0 17.6 0 a8.8 8.8 0 1 0 -17.6 0zM1407.82 3875.07 a8.8 8.8 0 1 0 17.6 0 a8.8 8.8 0 1 0 -17.6 0zM1331.61 3919.07 a8.8 8.8 0 1 0 17.6 0 a8.8 8.8 0 1 0 -17.6 0zM1255.4 3875.07 a8.8 8.8 0 1 0 17.6 0 a8.8 8.8 0 1 0 -17.6 0zM1255.4 3787.07 a8.8 8.8 0 1 0 17.6 0 a8.8 8.8 0 1 0 -17.6 0zM1407.82 179.07 a8.8 8.8 0 1 0 17.6 0 a8.8 8.8 0 1 0 -17.6 0zM1484.04 223.07 a8.8 8.8 0 1 0 17.6 0 a8.8 8.8 0 1 0 -17.6 0zM1484.04 311.07 a8.8 8.8 0 1 0 17.6 0 a8.8 8.8 0 1 0 -17.6 0zM1407.82 355.07 a8.8 8.8 0 1 0 17.6 0 a8.8 8.8 0 1 0 -17.6 0zM1331.61 311.07 a8.8 8.8 0 1 0 17.6 0 a8.8 8.8 0 1 0 -17.6 0zM1331.61 223.07 a8.8 8.8 0 1 0 17.6 0 a8.8 8.8 0 1 0 -17.6 0zM1560.25 355.07 a8.8 8.8 0 1 0 17.6 0 a8.8 8.8 0 1 0 -17.6 0zM1560.25 443.07 a8.8 8.8 0 1 0 17.6 0 a8.8 8.8 0 1 0 -17.6 0zM1484.04 487.07 a8.8 8.8 0 1 0 17.6 0 a8.8 8.8 0 1 0 -17.6 0zM1407.82 443.07 a8.8 8.8 0 1 0 17.6 0 a8.8 8.8 0 1 0 -17.6 0zM1484.04 751.07 a8.8 8.8 0 1 0 17.6 0 a8.8 8.8 0 1 0 -17.6 0zM1484.04 839.07 a8.8 8.8 0 1 0 17.6 0 a8.8 8.8 0 1 0 -17.6 0zM1407.82 883.07 a8.8 8.8 0 1 0 17.6 0 a8.8 8.8 0 1 0 -17.6 0zM1331.61 839.07 a8.8 8.8 0 1 0 17.6 0 a8.8 8.8 0 1 0 -17.6 0zM1407.82 971.07 a8.8 8.8 0 1 0 17.6 0 a8.8 8.8 0 1 0 -17.6 0zM1484.04 1015.07 a8.8 8.8 0 1 0 17.6 0 a8.8 8.8 0 1 0 -17.6 0zM1484.04 1103.07 a8.8 8.8 0 1 0 17.6 0 a8.8 8.8 0 1 0 -17.6 0zM1331.61 1015.07 a8.8 8.8 0 1 0 17.6 0 a8.8 8.8 0 1 0 -17.6 0zM1484.04 1279.07 a8.8 8.8 0 1 0 17.6 0 a8.8 8.8 0 1 0 -17.6 0zM1484.04 1367.07 a8.8 8.8 0 1 0 17.6 0 a8.8 8.8 0 1 0 -17.6 0zM1407.82 1411.07 a8.8 8.8 0 1 0 17.6 0 a8.8 8.8 0 1 0 -17.6 0zM1331.61 1367.07 a8.8 8.8 0 1 0 17.6 0 a8.8 8.8 0 1 0 -17.6 0zM1484.04 1895.07 a8.8 8.8 0 1 0 17.6 0 a8.8 8.8 0 1 0 -17.6 0zM1560.25 1939.07 a8.8 8.8 0 1 0 17.6 0 a8.8 8.8 0 1 0 -17.6 0zM1560.25 2027.07 a8.8 8.8 0 1 0 17.6 0 a8.8 8.8 0 1 0 -17.6 0zM1484.04 2071.07 a8.8 8.8 0 1 0 17.6 0 a8.8 8.8 0 1 0 -17.6 0zM1484.04 2335.07 a8.8 8.8 0 1 0 17.6 0 a8.8 8.8 0 1 0 -17.6 0zM1484.04 2423.07 a8.8 8.8 0 1 0 17.6 0 a8.8 8.8 0 1 0 -17.6 0zM1484.04 2599.07 a8.8 8.8 0 1 0 17.6 0 a8.8 8.8 0 1 0 -17.6 0zM1484.04 2687.07 a8.8 8.8 0 1 0 17.6 0 a8.8 8.8 0 1 0 -17.6 0zM1407.82 2731.07 a8.8 8.8 0 1 0 17.6 0 a8.8 8.8 0 1 0 -17.6 0zM1560.25 2731.07 a8.8 8.8 0 1 0 17.6 0 a8.8 8.8 0 1 0 -17.6 0zM1560.25 2819.07 a8.8 8.8 0 1 0 17.6 0 a8.8 8.8 0 1 0 -17.6 0zM1484.04 2863.07 a8.8 8.8 0 1 0 17.6 0 a8.8 8.8 0 1 0 -17.6 0zM1407.82 2819.07 a8.8 8.8 0 1 0 17.6 0 a8.8 8.8 0 1 0 -17.6 0zM1407.82 3083.07 a8.8 8.8 0 1 0 17.6 0 a8.8 8.8 0 1 0 -17.6 0zM1484.04 3127.07 a8.8 8.8 0 1 0 17.6 0 a8.8 8.8 0 1 0 -17.6 0zM1484.04 3215.07 a8.8 8.8 0 1 0 17.6 0 a8.8 8.8 0 1 0 -17.6 0zM1331.61 3127.07 a8.8 8.8 0 1 0 17.6 0 a8.8 8.8 0 1 0 -17.6 0zM1484.04 3479.07 a8.8 8.8 0 1 0 17.6 0 a8.8 8.8 0 1 0 -17.6 0zM1560.25 3523.07 a8.8 8.8 0 1 0 17.6 0 a8.8 8.8 0 1 0 -17.6 0zM1560.25 3611.07 a8.8 8.8 0 1 0 17.6 0 a8.8 8.8 0 1 0 -17.6 0zM1484.04 3655.07 a8.8 8.8 0 1 0 17.6 0 a8.8 8.8 0 1 0 -17.6 0zM1407.82 3611.07 a8.8 8.8 0 1 0 17.6 0 a8.8 8.8 0 1 0 -17.6 0zM1407.82 3523.07 a8.8 8.8 0 1 0 17.6 0 a8.8 8.8 0 1 0 -17.6 0zM1484.04 3743.07 a8.8 8.8 0 1 0 17.6 0 a8.8 8.8 0 1 0 -17.6 0zM1331.61 3655.07 a8.8 8.8 0 1 0 17.6 0 a8.8 8.8 0 1 0 -17.6 0zM1636.46 311.07 a8.8 8.8 0 1 0 17.6 0 a8.8 8.8 0 1 0 -17.6 0zM1712.67 355.07 a8.8 8.8 0 1 0 17.6 0 a8.8 8.8 0 1 0 -17.6 0zM1712.67 443.07 a8.8 8.8 0 1 0 17.6 0 a8.8 8.8 0 1 0 -17.6 0zM1636.46 487.07 a8.8 8.8 0 1 0 17.6 0 a8.8 8.8 0 1 0 -17.6 0zM1636.46 575.07 a8.8 8.8 0 1 0 17.6 0 a8.8 8.8 0 1 0 -17.6 0zM1712.67 619.07 a8.8 8.8 0 1 0 17.6 0 a8.8 8.8 0 1 0 -17.6 0zM1712.67 707.07 a8.8 8.8 0 1 0 17.6 0 a8.8 8.8 0 1 0 -17.6 0zM1636.46 751.07 a8.8 8.8 0 1 0 17.6 0 a8.8 8.8 0 1 0 -17.6 0zM1560.25 707.07 a8.8 8.8 0 1 0 17.6 0 a8.8 8.8 0 1 0 -17.6 0zM1560.25 619.07 a8.8 8.8 0 1 0 17.6 0 a8.8 8.8 0 1 0 -17.6 0zM1636.46 1367.07 a8.8 8.8 0 1 0 17.6 0 a8.8 8.8 0 1 0 -17.6 0zM1712.67 1411.07 a8.8 8.8 0 1 0 17.6 0 a8.8 8.8 0 1 0 -17.6 0zM1712.67 1499.07 a8.8 8.8 0 1 0 17.6 0 a8.8 8.8 0 1 0 -17.6 0zM1636.46 1543.07 a8.8 8.8 0 1 0 17.6 0 a8.8 8.8 0 1 0 -17.6 0zM1560.25 1499.07 a8.8 8.8 0 1 0 17.6 0 a8.8 8.8 0 1 0 -17.6 0zM1560.25 1411.07 a8.8 8.8 0 1 0 17.6 0 a8.8 8.8 0 1 0 -17.6 0zM1636.46 1631.07 a8.8 8.8 0 1 0 17.6 0 a8.8 8.8 0 1 0 -17.6 0zM1560.25 1675.07 a8.8 8.8 0 1 0 17.6 0 a8.8 8.8 0 1 0 -17.6 0zM1484.04 1631.07 a8.8 8.8 0 1 0 17.6 0 a8.8 8.8 0 1 0 -17.6 0zM1484.04 1543.07 a8.8 8.8 0 1 0 17.6 0 a8.8 8.8 0 1 0 -17.6 0zM1712.67 1675.07 a8.8 8.8 0 1 0 17.6 0 a8.8 8.8 0 1 0 -17.6 0zM1712.67 1763.07 a8.8 8.8 0 1 0 17.6 0 a8.8 8.8 0 1 0 -17.6 0zM1636.46 1807.07 a8.8 8.8 0 1 0 17.6 0 a8.8 8.8 0 1 0 -17.6 0zM1560.25 1763.07 a8.8 8.8 0 1 0 17.6 0 a8.8 8.8 0 1 0 -17.6 0zM1636.46 1895.07 a8.8 8.8 0 1 0 17.6 0 a8.8 8.8 0 1 0 -17.6 0zM1712.67 1939.07 a8.8 8.8 0 1 0 17.6 0 a8.8 8.8 0 1 0 -17.6 0zM1712.67 2027.07 a8.8 8.8 0 1 0 17.6 0 a8.8 8.8 0 1 0 -17.6 0zM1636.46 2071.07 a8.8 8.8 0 1 0 17.6 0 a8.8 8.8 0 1 0 -17.6 0zM1560.25 2291.07 a8.8 8.8 0 1 0 17.6 0 a8.8 8.8 0 1 0 -17.6 0zM1636.46 2335.07 a8.8 8.8 0 1 0 17.6 0 a8.8 8.8 0 1 0 -17.6 0zM1636.46 2423.07 a8.8 8.8 0 1 0 17.6 0 a8.8 8.8 0 1 0 -17.6 0zM1560.25 2467.07 a8.8 8.8 0 1 0 17.6 0 a8.8 8.8 0 1 0 -17.6 0zM1560.25 2555.07 a8.8 8.8 0 1 0 17.6 0 a8.8 8.8 0 1 0 -17.6 0zM1636.46 2599.07 a8.8 8.8 0 1 0 17.6 0 a8.8 8.8 0 1 0 -17.6 0zM1636.46 2687.07 a8.8 8.8 0 1 0 17.6 0 a8.8 8.8 0 1 0 -17.6 0zM1712.67 2731.07 a8.8 8.8 0 1 0 17.6 0 a8.8 8.8 0 1 0 -17.6 0zM1712.67 2819.07 a8.8 8.8 0 1 0 17.6 0 a8.8 8.8 0 1 0 -17.6 0zM1636.46 2863.07 a8.8 8.8 0 1 0 17.6 0 a8.8 8.8 0 1 0 -17.6 0zM1560.25 3083.07 a8.8 8.8 0 1 0 17.6 0 a8.8 8.8 0 1 0 -17.6 0zM1636.46 3127.07 a8.8 8.8 0 1 0 17.6 0 a8.8 8.8 0 1 0 -17.6 0zM1636.46 3215.07 a8.8 8.8 0 1 0 17.6 0 a8.8 8.8 0 1 0 -17.6 0zM1560.25 3259.07 a8.8 8.8 0 1 0 17.6 0 a8.8 8.8 0 1 0 -17.6 0zM1712.67 3259.07 a8.8 8.8 0 1 0 17.6 0 a8.8 8.8 0 1 0 -17.6 0zM1712.67 3347.07 a8.8 8.8 0 1 0 17.6 0 a8.8 8.8 0 1 0 -17.6 0zM1636.46 3391.07 a8.8 8.8 0 1 0 17.6 0 a8.8 8.8 0 1 0 -17.6 0zM1560.25 3347.07 a8.8 8.8 0 1 0 17.6 0 a8.8 8.8 0 1 0 -17.6 0zM1712.67 -84.93 a8.8 8.8 0 1 0 17.6 0 a8.8 8.8 0 1 0 -17.6 0zM1788.89 -40.93 a8.8 8.8 0 1 0 17.6 0 a8.8 8.8 0 1 0 -17.6 0zM1788.89 47.07 a8.8 8.8 0 1 0 17.6 0 a8.8 8.8 0 1 0 -17.6 0zM1712.67 91.07 a8.8 8.8 0 1 0 17.6 0 a8.8 8.8 0 1 0 -17.6 0zM1636.46 47.07 a8.8 8.8 0 1 0 17.6 0 a8.8 8.8 0 1 0 -17.6 0zM1636.46 -40.93 a8.8 8.8 0 1 0 17.6 0 a8.8 8.8 0 1 0 -17.6 0zM1788.89 487.07 a8.8 8.8 0 1 0 17.6 0 a8.8 8.8 0 1 0 -17.6 0zM1788.89 575.07 a8.8 8.8 0 1 0 17.6 0 a8.8 8.8 0 1 0 -17.6 0zM1712.67 971.07 a8.8 8.8 0 1 0 17.6 0 a8.8 8.8 0 1 0 -17.6 0zM1788.89 1015.07 a8.8 8.8 0 1 0 17.6 0 a8.8 8.8 0 1 0 -17.6 0zM1788.89 1103.07 a8.8 8.8 0 1 0 17.6 0 a8.8 8.8 0 1 0 -17.6 0zM1712.67 1147.07 a8.8 8.8 0 1 0 17.6 0 a8.8 8.8 0 1 0 -17.6 0zM1636.46 1103.07 a8.8 8.8 0 1 0 17.6 0 a8.8 8.8 0 1 0 -17.6 0zM1636.46 1015.07 a8.8 8.8 0 1 0 17.6 0 a8.8 8.8 0 1 0 -17.6 0zM1788.89 1543.07 a8.8 8.8 0 1 0 17.6 0 a8.8 8.8 0 1 0 -17.6 0zM1788.89 1631.07 a8.8 8.8 0 1 0 17.6 0 a8.8 8.8 0 1 0 -17.6 0zM1865.1 1675.07 a8.8 8.8 0 1 0 17.6 0 a8.8 8.8 0 1 0 -17.6 0zM1865.1 1763.07 a8.8 8.8 0 1 0 17.6 0 a8.8 8.8 0 1 0 -17.6 0zM1788.89 1807.07 a8.8 8.8 0 1 0 17.6 0 a8.8 8.8 0 1 0 -17.6 0zM1788.89 2071.07 a8.8 8.8 0 1 0 17.6 0 a8.8 8.8 0 1 0 -17.6 0zM1788.89 2159.07 a8.8 8.8 0 1 0 17.6 0 a8.8 8.8 0 1 0 -17.6 0zM1712.67 2203.07 a8.8 8.8 0 1 0 17.6 0 a8.8 8.8 0 1 0 -17.6 0zM1636.46 2159.07 a8.8 8.8 0 1 0 17.6 0 a8.8 8.8 0 1 0 -17.6 0zM1712.67 2555.07 a8.8 8.8 0 1 0 17.6 0 a8.8 8.8 0 1 0 -17.6 0zM1788.89 2599.07 a8.8 8.8 0 1 0 17.6 0 a8.8 8.8 0 1 0 -17.6 0zM1788.89 2687.07 a8.8 8.8 0 1 0 17.6 0 a8.8 8.8 0 1 0 -17.6 0zM1788.89 2951.07 a8.8 8.8 0 1 0 17.6 0 a8.8 8.8 0 1 0 -17.6 0zM1865.1 2995.07 a8.8 8.8 0 1 0 17.6 0 a8.8 8.8 0 1 0 -17.6 0zM1865.1 3083.07 a8.8 8.8 0 1 0 17.6 0 a8.8 8.8 0 1 0 -17.6 0zM1788.89 3127.07 a8.8 8.8 0 1 0 17.6 0 a8.8 8.8 0 1 0 -17.6 0zM1712.67 3083.07 a8.8 8.8 0 1 0 17.6 0 a8.8 8.8 0 1 0 -17.6 0zM1712.67 2995.07 a8.8 8.8 0 1 0 17.6 0 a8.8 8.8 0 1 0 -17.6 0zM1788.89 3215.07 a8.8 8.8 0 1 0 17.6 0 a8.8 8.8 0 1 0 -17.6 0zM1865.1 3259.07 a8.8 8.8 0 1 0 17.6 0 a8.8 8.8 0 1 0 -17.6 0zM1865.1 3347.07 a8.8 8.8 0 1 0 17.6 0 a8.8 8.8 0 1 0 -17.6 0zM1788.89 3391.07 a8.8 8.8 0 1 0 17.6 0 a8.8 8.8 0 1 0 -17.6 0zM1788.89 3479.07 a8.8 8.8 0 1 0 17.6 0 a8.8 8.8 0 1 0 -17.6 0zM1712.67 3523.07 a8.8 8.8 0 1 0 17.6 0 a8.8 8.8 0 1 0 -17.6 0zM1636.46 3479.07 a8.8 8.8 0 1 0 17.6 0 a8.8 8.8 0 1 0 -17.6 0zM1712.67 3611.07 a8.8 8.8 0 1 0 17.6 0 a8.8 8.8 0 1 0 -17.6 0zM1788.89 3655.07 a8.8 8.8 0 1 0 17.6 0 a8.8 8.8 0 1 0 -17.6 0zM1788.89 3743.07 a8.8 8.8 0 1 0 17.6 0 a8.8 8.8 0 1 0 -17.6 0zM1712.67 3787.07 a8.8 8.8 0 1 0 17.6 0 a8.8 8.8 0 1 0 -17.6 0zM1636.46 3743.07 a8.8 8.8 0 1 0 17.6 0 a8.8 8.8 0 1 0 -17.6 0zM1636.46 3655.07 a8.8 8.8 0 1 0 17.6 0 a8.8 8.8 0 1 0 -17.6 0zM1865.1 -84.93 a8.8 8.8 0 1 0 17.6 0 a8.8 8.8 0 1 0 -17.6 0zM1941.31 -40.93 a8.8 8.8 0 1 0 17.6 0 a8.8 8.8 0 1 0 -17.6 0zM1941.31 47.07 a8.8 8.8 0 1 0 17.6 0 a8.8 8.8 0 1 0 -17.6 0zM1865.1 91.07 a8.8 8.8 0 1 0 17.6 0 a8.8 8.8 0 1 0 -17.6 0zM1865.1 179.07 a8.8 8.8 0 1 0 17.6 0 a8.8 8.8 0 1 0 -17.6 0zM1941.31 223.07 a8.8 8.8 0 1 0 17.6 0 a8.8 8.8 0 1 0 -17.6 0zM1941.31 311.07 a8.8 8.8 0 1 0 17.6 0 a8.8 8.8 0 1 0 -17.6 0zM1865.1 355.07 a8.8 8.8 0 1 0 17.6 0 a8.8 8.8 0 1 0 -17.6 0zM1788.89 311.07 a8.8 8.8 0 1 0 17.6 0 a8.8 8.8 0 1 0 -17.6 0zM1788.89 223.07 a8.8 8.8 0 1 0 17.6 0 a8.8 8.8 0 1 0 -17.6 0zM2017.52 355.07 a8.8 8.8 0 1 0 17.6 0 a8.8 8.8 0 1 0 -17.6 0zM2017.52 443.07 a8.8 8.8 0 1 0 17.6 0 a8.8 8.8 0 1 0 -17.6 0zM1941.31 487.07 a8.8 8.8 0 1 0 17.6 0 a8.8 8.8 0 1 0 -17.6 0zM1865.1 443.07 a8.8 8.8 0 1 0 17.6 0 a8.8 8.8 0 1 0 -17.6 0zM1941.31 575.07 a8.8 8.8 0 1 0 17.6 0 a8.8 8.8 0 1 0 -17.6 0zM2017.52 619.07 a8.8 8.8 0 1 0 17.6 0 a8.8 8.8 0 1 0 -17.6 0zM2017.52 707.07 a8.8 8.8 0 1 0 17.6 0 a8.8 8.8 0 1 0 -17.6 0zM1941.31 751.07 a8.8 8.8 0 1 0 17.6 0 a8.8 8.8 0 1 0 -17.6 0zM1865.1 707.07 a8.8 8.8 0 1 0 17.6 0 a8.8 8.8 0 1 0 -17.6 0zM1865.1 619.07 a8.8 8.8 0 1 0 17.6 0 a8.8 8.8 0 1 0 -17.6 0zM1941.31 839.07 a8.8 8.8 0 1 0 17.6 0 a8.8 8.8 0 1 0 -17.6 0zM2017.52 883.07 a8.8 8.8 0 1 0 17.6 0 a8.8 8.8 0 1 0 -17.6 0zM2017.52 971.07 a8.8 8.8 0 1 0 17.6 0 a8.8 8.8 0 1 0 -17.6 0zM1941.31 1015.07 a8.8 8.8 0 1 0 17.6 0 a8.8 8.8 0 1 0 -17.6 0zM1865.1 971.07 a8.8 8.8 0 1 0 17.6 0 a8.8 8.8 0 1 0 -17.6 0zM1865.1 883.07 a8.8 8.8 0 1 0 17.6 0 a8.8 8.8 0 1 0 -17.6 0zM1941.31 1103.07 a8.8 8.8 0 1 0 17.6 0 a8.8 8.8 0 1 0 -17.6 0zM1865.1 1147.07 a8.8 8.8 0 1 0 17.6 0 a8.8 8.8 0 1 0 -17.6 0zM1865.1 1235.07 a8.8 8.8 0 1 0 17.6 0 a8.8 8.8 0 1 0 -17.6 0zM1941.31 1279.07 a8.8 8.8 0 1 0 17.6 0 a8.8 8.8 0 1 0 -17.6 0zM1941.31 1367.07 a8.8 8.8 0 1 0 17.6 0 a8.8 8.8 0 1 0 -17.6 0zM1865.1 1411.07 a8.8 8.8 0 1 0 17.6 0 a8.8 8.8 0 1 0 -17.6 0zM1788.89 1367.07 a8.8 8.8 0 1 0 17.6 0 a8.8 8.8 0 1 0 -17.6 0zM1788.89 1279.07 a8.8 8.8 0 1 0 17.6 0 a8.8 8.8 0 1 0 -17.6 0zM2017.52 1411.07 a8.8 8.8 0 1 0 17.6 0 a8.8 8.8 0 1 0 -17.6 0zM2017.52 1499.07 a8.8 8.8 0 1 0 17.6 0 a8.8 8.8 0 1 0 -17.6 0zM1941.31 1543.07 a8.8 8.8 0 1 0 17.6 0 a8.8 8.8 0 1 0 -17.6 0zM1865.1 1499.07 a8.8 8.8 0 1 0 17.6 0 a8.8 8.8 0 1 0 -17.6 0zM1941.31 1631.07 a8.8 8.8 0 1 0 17.6 0 a8.8 8.8 0 1 0 -17.6 0zM1865.1 2027.07 a8.8 8.8 0 1 0 17.6 0 a8.8 8.8 0 1 0 -17.6 0zM1941.31 2071.07 a8.8 8.8 0 1 0 17.6 0 a8.8 8.8 0 1 0 -17.6 0zM1941.31 2159.07 a8.8 8.8 0 1 0 17.6 0 a8.8 8.8 0 1 0 -17.6 0zM1865.1 2203.07 a8.8 8.8 0 1 0 17.6 0 a8.8 8.8 0 1 0 -17.6 0zM1941.31 2687.07 a8.8 8.8 0 1 0 17.6 0 a8.8 8.8 0 1 0 -17.6 0zM2017.52 2731.07 a8.8 8.8 0 1 0 17.6 0 a8.8 8.8 0 1 0 -17.6 0zM2017.52 2819.07 a8.8 8.8 0 1 0 17.6 0 a8.8 8.8 0 1 0 -17.6 0zM1941.31 2863.07 a8.8 8.8 0 1 0 17.6 0 a8.8 8.8 0 1 0 -17.6 0zM1865.1 2819.07 a8.8 8.8 0 1 0 17.6 0 a8.8 8.8 0 1 0 -17.6 0zM1865.1 2731.07 a8.8 8.8 0 1 0 17.6 0 a8.8 8.8 0 1 0 -17.6 0zM1941.31 2951.07 a8.8 8.8 0 1 0 17.6 0 a8.8 8.8 0 1 0 -17.6 0zM2017.52 2995.07 a8.8 8.8 0 1 0 17.6 0 a8.8 8.8 0 1 0 -17.6 0zM2017.52 3083.07 a8.8 8.8 0 1 0 17.6 0 a8.8 8.8 0 1 0 -17.6 0zM1941.31 3127.07 a8.8 8.8 0 1 0 17.6 0 a8.8 8.8 0 1 0 -17.6 0zM1941.31 3215.07 a8.8 8.8 0 1 0 17.6 0 a8.8 8.8 0 1 0 -17.6 0zM1941.31 3391.07 a8.8 8.8 0 1 0 17.6 0 a8.8 8.8 0 1 0 -17.6 0zM1941.31 3479.07 a8.8 8.8 0 1 0 17.6 0 a8.8 8.8 0 1 0 -17.6 0zM1865.1 3523.07 a8.8 8.8 0 1 0 17.6 0 a8.8 8.8 0 1 0 -17.6 0zM2017.52 3523.07 a8.8 8.8 0 1 0 17.6 0 a8.8 8.8 0 1 0 -17.6 0zM2017.52 3611.07 a8.8 8.8 0 1 0 17.6 0 a8.8 8.8 0 1 0 -17.6 0zM1941.31 3655.07 a8.8 8.8 0 1 0 17.6 0 a8.8 8.8 0 1 0 -17.6 0zM1865.1 3611.07 a8.8 8.8 0 1 0 17.6 0 a8.8 8.8 0 1 0 -17.6 0zM1941.31 3743.07 a8.8 8.8 0 1 0 17.6 0 a8.8 8.8 0 1 0 -17.6 0zM2017.52 3787.07 a8.8 8.8 0 1 0 17.6 0 a8.8 8.8 0 1 0 -17.6 0zM2017.52 3875.07 a8.8 8.8 0 1 0 17.6 0 a8.8 8.8 0 1 0 -17.6 0zM1941.31 3919.07 a8.8 8.8 0 1 0 17.6 0 a8.8 8.8 0 1 0 -17.6 0zM1865.1 3875.07 a8.8 8.8 0 1 0 17.6 0 a8.8 8.8 0 1 0 -17.6 0zM1865.1 3787.07 a8.8 8.8 0 1 0 17.6 0 a8.8 8.8 0 1 0 -17.6 0z" fill="rgba(0, 0, 0, 0)"></path>
        <path d="M173.91 77.62L303.81 152.62L303.81 302.62L173.91 377.62L44 302.62L44 152.62zM173.91 977.62L303.81 1052.62L303.81 1202.62L173.91 1277.62L44 1202.62L44 1052.62zM173.91 1427.62L303.81 1502.62L303.81 1652.62L173.91 1727.62L44 1652.62L44 1502.62zM44 2102.62L173.91 2177.62L173.91 2327.62L44 2402.62L-85.91 2327.62L-85.91 2177.62zM173.91 3227.62L303.81 3302.62L303.81 3452.62L173.91 3527.62L44 3452.62L44 3302.62zM433.72 1427.62L563.63 1502.62L563.63 1652.62L433.72 1727.62L303.81 1652.62L303.81 1502.62zM303.81 2102.62L433.72 2177.62L433.72 2327.62L303.81 2402.62L173.91 2327.62L173.91 2177.62zM433.72 2777.62L563.63 2852.62L563.63 3002.62L433.72 3077.62L303.81 3002.62L303.81 2852.62zM693.54 1427.62L823.45 1502.62L823.45 1652.62L693.54 1727.62L563.63 1652.62L563.63 1502.62zM563.63 3902.62L693.54 3977.62L693.54 4127.62L563.63 4202.62L433.72 4127.62L433.72 3977.62zM823.44 302.62L953.35 377.62L953.35 527.62L823.44 602.62L693.54 527.62L693.54 377.62zM953.35 527.62L1083.26 602.62L1083.26 752.62L953.35 827.62L823.44 752.62L823.44 602.62zM823.44 1652.62L953.35 1727.62L953.35 1877.62L823.44 1952.62L693.54 1877.62L693.54 1727.62zM953.35 2777.62L1083.26 2852.62L1083.26 3002.62L953.35 3077.62L823.44 3002.62L823.44 2852.62zM953.35 3227.62L1083.26 3302.62L1083.26 3452.62L953.35 3527.62L823.44 3452.62L823.44 3302.62zM1213.17 1427.62L1343.08 1502.62L1343.08 1652.62L1213.17 1727.62L1083.26 1652.62L1083.26 1502.62zM1213.17 2327.62L1343.08 2402.62L1343.08 2552.62L1213.17 2627.62L1083.26 2552.62L1083.26 2402.62zM1343.08 302.62L1472.98 377.62L1472.98 527.62L1343.08 602.62L1213.17 527.62L1213.17 377.62zM1472.98 2327.62L1602.89 2402.62L1602.89 2552.62L1472.98 2627.62L1343.08 2552.62L1343.08 2402.62zM1472.98 2777.62L1602.89 2852.62L1602.89 3002.62L1472.98 3077.62L1343.08 3002.62L1343.08 2852.62zM1343.08 3902.62L1472.98 3977.62L1472.98 4127.62L1343.08 4202.62L1213.17 4127.62L1213.17 3977.62zM1602.89 302.62L1732.8 377.62L1732.8 527.62L1602.89 602.62L1472.98 527.62L1472.98 377.62zM1732.8 1427.62L1862.7 1502.62L1862.7 1652.62L1732.8 1727.62L1602.89 1652.62L1602.89 1502.62zM1602.89 1652.62L1732.8 1727.62L1732.8 1877.62L1602.89 1952.62L1472.98 1877.62L1472.98 1727.62zM1732.8 1877.62L1862.7 1952.62L1862.7 2102.62L1732.8 2177.62L1602.89 2102.62L1602.89 1952.62zM1732.8 2327.62L1862.7 2402.62L1862.7 2552.62L1732.8 2627.62L1602.89 2552.62L1602.89 2402.62zM1602.89 3002.62L1732.8 3077.62L1732.8 3227.62L1602.89 3302.62L1472.98 3227.62L1472.98 3077.62zM1602.89 3902.62L1732.8 3977.62L1732.8 4127.62L1602.89 4202.62L1472.98 4127.62L1472.98 3977.62zM1992.61 2327.62L2122.52 2402.62L2122.52 2552.62L1992.61 2627.62L1862.7 2552.62L1862.7 2402.62zM1992.61 2777.62L2122.52 2852.62L2122.52 3002.62L1992.61 3077.62L1862.7 3002.62L1862.7 2852.62z" stroke="rgba(55, 84, 126, 1)" stroke-width="2"></path>
    </g>
    <defs>
        <mask id="SvgjsMask3040">
            <rect width="1920" height="4000" fill="#ffffff"></rect>
        </mask>
    </defs>
</svg>
