<svg xmlns="http://www.w3.org/2000/svg" version="1.1" xmlns:xlink="http://www.w3.org/1999/xlink" xmlns:svgjs="http://svgjs.com/svgjs" width="1920" height="4000" preserveAspectRatio="none" viewBox="0 0 1920 4000">
    <g mask="url(&quot;#SvgjsMask1152&quot;)" fill="none">
        <path d="M151.43 1206.16L253.63 1265.16L253.63 1383.16L151.43 1442.16L49.24 1383.16L49.24 1265.16zM151.43 2622.16L253.63 2681.16L253.63 2799.16L151.43 2858.16L49.24 2799.16L49.24 2681.16zM49.24 2799.16L151.43 2858.16L151.43 2976.16L49.24 3035.16L-52.95 2976.16L-52.95 2858.16zM355.82 498.16L458.02 557.16L458.02 675.16L355.82 734.16L253.63 675.16L253.63 557.16zM355.82 1206.16L458.02 1265.16L458.02 1383.16L355.82 1442.16L253.63 1383.16L253.63 1265.16zM355.82 1560.16L458.02 1619.16L458.02 1737.16L355.82 1796.16L253.63 1737.16L253.63 1619.16zM253.63 1737.16L355.82 1796.16L355.82 1914.16L253.63 1973.16L151.43 1914.16L151.43 1796.16zM355.82 1914.16L458.02 1973.16L458.02 2091.16L355.82 2150.16L253.63 2091.16L253.63 1973.16zM253.63 2445.16L355.82 2504.16L355.82 2622.16L253.63 2681.16L151.43 2622.16L151.43 2504.16zM355.82 2622.16L458.02 2681.16L458.02 2799.16L355.82 2858.16L253.63 2799.16L253.63 2681.16zM253.63 3861.16L355.82 3920.16L355.82 4038.16L253.63 4097.16L151.43 4038.16L151.43 3920.16zM560.21 144.16L662.4 203.16L662.4 321.16L560.21 380.16L458.02 321.16L458.02 203.16zM458.02 3153.16L560.21 3212.16L560.21 3330.16L458.02 3389.16L355.82 3330.16L355.82 3212.16zM458.02 3507.16L560.21 3566.16L560.21 3684.16L458.02 3743.16L355.82 3684.16L355.82 3566.16zM560.21 4038.16L662.4 4097.16L662.4 4215.16L560.21 4274.16L458.02 4215.16L458.02 4097.16zM662.4 -32.84L764.6 26.16L764.6 144.16L662.4 203.16L560.21 144.16L560.21 26.16zM764.6 498.16L866.79 557.16L866.79 675.16L764.6 734.16L662.4 675.16L662.4 557.16zM764.6 852.16L866.79 911.16L866.79 1029.16L764.6 1088.16L662.4 1029.16L662.4 911.16zM662.4 1029.16L764.6 1088.16L764.6 1206.16L662.4 1265.16L560.21 1206.16L560.21 1088.16zM764.6 2622.16L866.79 2681.16L866.79 2799.16L764.6 2858.16L662.4 2799.16L662.4 2681.16zM662.4 3153.16L764.6 3212.16L764.6 3330.16L662.4 3389.16L560.21 3330.16L560.21 3212.16zM764.6 3330.16L866.79 3389.16L866.79 3507.16L764.6 3566.16L662.4 3507.16L662.4 3389.16zM662.4 3861.16L764.6 3920.16L764.6 4038.16L662.4 4097.16L560.21 4038.16L560.21 3920.16zM866.79 -32.84L968.99 26.16L968.99 144.16L866.79 203.16L764.6 144.16L764.6 26.16zM968.99 1206.16L1071.18 1265.16L1071.18 1383.16L968.99 1442.16L866.79 1383.16L866.79 1265.16zM968.99 2622.16L1071.18 2681.16L1071.18 2799.16L968.99 2858.16L866.79 2799.16L866.79 2681.16zM968.99 2976.16L1071.18 3035.16L1071.18 3153.16L968.99 3212.16L866.79 3153.16L866.79 3035.16zM1173.37 144.16L1275.57 203.16L1275.57 321.16L1173.37 380.16L1071.18 321.16L1071.18 203.16zM1173.37 498.16L1275.57 557.16L1275.57 675.16L1173.37 734.16L1071.18 675.16L1071.18 557.16zM1173.37 1206.16L1275.57 1265.16L1275.57 1383.16L1173.37 1442.16L1071.18 1383.16L1071.18 1265.16zM1071.18 1383.16L1173.37 1442.16L1173.37 1560.16L1071.18 1619.16L968.99 1560.16L968.99 1442.16zM1071.18 3507.16L1173.37 3566.16L1173.37 3684.16L1071.18 3743.16L968.99 3684.16L968.99 3566.16zM1377.76 852.16L1479.95 911.16L1479.95 1029.16L1377.76 1088.16L1275.57 1029.16L1275.57 911.16zM1275.57 1029.16L1377.76 1088.16L1377.76 1206.16L1275.57 1265.16L1173.37 1206.16L1173.37 1088.16zM1377.76 2976.16L1479.95 3035.16L1479.95 3153.16L1377.76 3212.16L1275.57 3153.16L1275.57 3035.16zM1377.76 3684.16L1479.95 3743.16L1479.95 3861.16L1377.76 3920.16L1275.57 3861.16L1275.57 3743.16zM1582.15 498.16L1684.34 557.16L1684.34 675.16L1582.15 734.16L1479.95 675.16L1479.95 557.16zM1479.95 1383.16L1582.15 1442.16L1582.15 1560.16L1479.95 1619.16L1377.76 1560.16L1377.76 1442.16zM1479.95 2091.16L1582.15 2150.16L1582.15 2268.16L1479.95 2327.16L1377.76 2268.16L1377.76 2150.16zM1582.15 3684.16L1684.34 3743.16L1684.34 3861.16L1582.15 3920.16L1479.95 3861.16L1479.95 3743.16zM1684.34 1029.16L1786.54 1088.16L1786.54 1206.16L1684.34 1265.16L1582.15 1206.16L1582.15 1088.16zM1786.54 1914.16L1888.73 1973.16L1888.73 2091.16L1786.54 2150.16L1684.34 2091.16L1684.34 1973.16zM1786.54 2268.16L1888.73 2327.16L1888.73 2445.16L1786.54 2504.16L1684.34 2445.16L1684.34 2327.16zM1786.54 2976.16L1888.73 3035.16L1888.73 3153.16L1786.54 3212.16L1684.34 3153.16L1684.34 3035.16zM1786.54 4038.16L1888.73 4097.16L1888.73 4215.16L1786.54 4274.16L1684.34 4215.16L1684.34 4097.16zM1888.73 321.16L1990.92 380.16L1990.92 498.16L1888.73 557.16L1786.54 498.16L1786.54 380.16zM1888.73 2445.16L1990.92 2504.16L1990.92 2622.16L1888.73 2681.16L1786.54 2622.16L1786.54 2504.16zM1990.92 3684.16L2093.12 3743.16L2093.12 3861.16L1990.92 3920.16L1888.73 3861.16L1888.73 3743.16z" stroke="rgba(85, 148, 201, 1)" stroke-width="2"></path>
        <path d="M274.74 1350.97L447.95 1450.97L447.95 1650.97L274.74 1750.97L101.53 1650.97L101.53 1450.97zM101.53 2250.97L274.74 2350.97L274.74 2550.97L101.53 2650.97L-71.68 2550.97L-71.68 2350.97zM101.53 2850.97L274.74 2950.97L274.74 3150.97L101.53 3250.97L-71.68 3150.97L-71.68 2950.97zM447.95 -149.03L621.16 -49.03L621.16 150.97L447.95 250.97L274.74 150.97L274.74 -49.03zM621.16 150.97L794.37 250.97L794.37 450.97L621.16 550.97L447.95 450.97L447.95 250.97zM621.16 750.97L794.37 850.97L794.37 1050.97L621.16 1150.97L447.95 1050.97L447.95 850.97zM621.16 1950.97L794.37 2050.97L794.37 2250.97L621.16 2350.97L447.95 2250.97L447.95 2050.97zM621.16 2550.97L794.37 2650.97L794.37 2850.97L621.16 2950.97L447.95 2850.97L447.95 2650.97zM967.58 750.97L1140.79 850.97L1140.79 1050.97L967.58 1150.97L794.37 1050.97L794.37 850.97zM967.58 1350.97L1140.79 1450.97L1140.79 1650.97L967.58 1750.97L794.37 1650.97L794.37 1450.97zM794.37 1650.97L967.58 1750.97L967.58 1950.97L794.37 2050.97L621.16 1950.97L621.16 1750.97zM967.58 3150.97L1140.79 3250.97L1140.79 3450.97L967.58 3550.97L794.37 3450.97L794.37 3250.97zM1140.79 1050.97L1314 1150.97L1314 1350.97L1140.79 1450.97L967.58 1350.97L967.58 1150.97zM1140.79 1650.97L1314 1750.97L1314 1950.97L1140.79 2050.97L967.58 1950.97L967.58 1750.97zM1314 2550.97L1487.21 2650.97L1487.21 2850.97L1314 2950.97L1140.79 2850.97L1140.79 2650.97zM1314 3150.97L1487.21 3250.97L1487.21 3450.97L1314 3550.97L1140.79 3450.97L1140.79 3250.97zM1140.79 3450.97L1314 3550.97L1314 3750.97L1140.79 3850.97L967.58 3750.97L967.58 3550.97zM1487.21 -149.03L1660.42 -49.03L1660.42 150.97L1487.21 250.97L1314 150.97L1314 -49.03zM1487.21 1050.97L1660.42 1150.97L1660.42 1350.97L1487.21 1450.97L1314 1350.97L1314 1150.97zM1660.42 1950.97L1833.63 2050.97L1833.63 2250.97L1660.42 2350.97L1487.21 2250.97L1487.21 2050.97zM1660.42 3750.97L1833.63 3850.97L1833.63 4050.97L1660.42 4150.97L1487.21 4050.97L1487.21 3850.97zM1833.63 -149.03L2006.84 -49.03L2006.84 150.97L1833.63 250.97L1660.42 150.97L1660.42 -49.03zM2006.84 150.97L2180.05 250.97L2180.05 450.97L2006.84 550.97L1833.63 450.97L1833.63 250.97zM1833.63 1050.97L2006.84 1150.97L2006.84 1350.97L1833.63 1450.97L1660.42 1350.97L1660.42 1150.97zM1833.63 1650.97L2006.84 1750.97L2006.84 1950.97L1833.63 2050.97L1660.42 1950.97L1660.42 1750.97zM1833.63 2850.97L2006.84 2950.97L2006.84 3150.97L1833.63 3250.97L1660.42 3150.97L1660.42 2950.97z" stroke="rgba(60, 104, 169, 1)" stroke-width="2"></path>
    </g>
    <defs>
        <mask id="SvgjsMask1152">
            <rect width="1920" height="4000" fill="#ffffff"></rect>
        </mask>
    </defs>
</svg>
